<svg width="360" height="39" viewBox="0 0 360 39" fill="none" xmlns="http://www.w3.org/2000/svg">
<path d="M37.1429 19.395C37.1429 19.5845 37.0827 19.7661 36.9755 19.9001C36.8683 20.0341 36.723 20.1093 36.5714 20.1093H27.4286C27.277 20.1093 27.1317 20.0341 27.0245 19.9001C26.9173 19.7661 26.8571 19.5845 26.8571 19.395C26.8571 19.2056 26.9173 19.0239 27.0245 18.8899C27.1317 18.756 27.277 18.6807 27.4286 18.6807H36.5714C36.723 18.6807 36.8683 18.756 36.9755 18.8899C37.0827 19.0239 37.1429 19.2056 37.1429 19.395ZM39.4286 14.395H24.5714C24.4199 14.395 24.2745 14.4703 24.1674 14.6042C24.0602 14.7382 24 14.9199 24 15.1093C24 15.2987 24.0602 15.4804 24.1674 15.6144C24.2745 15.7483 24.4199 15.8236 24.5714 15.8236H39.4286C39.5801 15.8236 39.7255 15.7483 39.8326 15.6144C39.9398 15.4804 40 15.2987 40 15.1093C40 14.9199 39.9398 14.7382 39.8326 14.6042C39.7255 14.4703 39.5801 14.395 39.4286 14.395ZM33.7143 22.9664H30.2857C30.1342 22.9664 29.9888 23.0417 29.8817 23.1757C29.7745 23.3096 29.7143 23.4913 29.7143 23.6807C29.7143 23.8702 29.7745 24.0519 29.8817 24.1858C29.9888 24.3198 30.1342 24.395 30.2857 24.395H33.7143C33.8658 24.395 34.0112 24.3198 34.1183 24.1858C34.2255 24.0519 34.2857 23.8702 34.2857 23.6807C34.2857 23.4913 34.2255 23.3096 34.1183 23.1757C34.0112 23.0417 33.8658 22.9664 33.7143 22.9664Z" fill="#8F8F8F"/>
<path d="M48.7354 22.1733C49.9922 22.1056 51.0713 22.0041 51.9727 21.8687L52.0488 22.605C50.9782 22.7996 49.8737 22.9287 48.7354 22.9922C47.597 23.0557 46.3973 23.0874 45.1362 23.0874H44.6602L44.5205 22.2622C45.9255 22.2537 47.0046 22.2368 47.7578 22.2114V20.0913H48.7354V22.1733ZM44.8633 19.6978C45.4219 19.5327 45.9149 19.2915 46.3423 18.9741C46.7739 18.6525 47.1104 18.2759 47.3516 17.8442C47.597 17.4084 47.724 16.9429 47.7324 16.4478H45.1426V15.6226H47.7578V14.2261H48.7354V15.6226H51.3887V16.4478H48.7354C48.7438 16.9217 48.8729 17.3682 49.1226 17.7871C49.3722 18.2018 49.715 18.5636 50.1509 18.8726C50.5868 19.1772 51.084 19.41 51.6426 19.5708L51.1729 20.3579C50.4958 20.1548 49.9012 19.8438 49.3892 19.4248C48.8813 19.0016 48.5005 18.5065 48.2466 17.9395C48.0054 18.5404 47.6309 19.0588 47.123 19.4946C46.6195 19.9305 46.027 20.2521 45.3457 20.4595L44.8633 19.6978ZM52.7217 14.1372H53.7119V25.4487H52.7217V14.1372ZM65.0107 22.4272H64.0205V14.1499H65.0107V22.4272ZM55.8066 20.0151C56.3695 19.7951 56.8667 19.4756 57.2983 19.0566C57.7342 18.6377 58.0728 18.1574 58.314 17.6157C58.5552 17.0698 58.6758 16.5028 58.6758 15.9146V14.7847H59.6914V15.9146C59.6872 16.4774 59.8035 17.019 60.0405 17.5396C60.2817 18.0558 60.6182 18.5086 61.0498 18.8979C61.4814 19.2873 61.9766 19.5835 62.5352 19.7866L62.0146 20.5864C61.363 20.3368 60.7917 19.9686 60.3008 19.4819C59.8099 18.991 59.4396 18.4198 59.1899 17.7681C58.9445 18.4621 58.5742 19.0736 58.0791 19.6025C57.584 20.1315 57.0085 20.5272 56.3525 20.7896L55.8066 20.0151ZM57.7236 21.6655H58.7139V24.3442H65.3662V25.1821H57.7236V21.6655ZM72.5898 15.0005C72.5898 15.4744 72.7824 15.9336 73.1675 16.3779C73.5568 16.818 74.0604 17.1947 74.6782 17.5078C75.3003 17.8167 75.9414 18.022 76.6016 18.1235L76.208 18.9106C75.6325 18.8133 75.0718 18.6462 74.5259 18.4092C73.9842 18.168 73.4997 17.8717 73.0723 17.5205C72.6449 17.1693 72.3148 16.7799 72.082 16.3525C71.8535 16.7884 71.5234 17.1841 71.0918 17.5396C70.6644 17.8908 70.1777 18.1849 69.6318 18.4219C69.0859 18.6589 68.5231 18.826 67.9434 18.9233L67.5498 18.1362C68.2184 18.0347 68.8617 17.8315 69.4795 17.5269C70.0973 17.2179 70.5988 16.8413 70.9839 16.397C71.369 15.9526 71.5615 15.4871 71.5615 15.0005V14.4292H72.5898V15.0005ZM66.915 19.8882H77.249V20.7134H72.6533V23.0239H71.6631V20.7134H66.915V19.8882ZM68.2354 21.9194H69.2383V24.3442H76.0938V25.1821H68.2354V21.9194Z" fill="#8F8F8F"/>
<path d="M289.188 18.5138L289.881 19.2075L293.95 15.1388L293.256 14.445L289.188 18.5138ZM283.75 24.645H284.444L288.813 20.2763L288.119 19.5825L283.75 23.9513V24.645ZM290.406 20.8013L287.594 17.9888L290.725 14.8575L290.181 14.3138L286.075 18.42L285.025 17.37L289.113 13.2638C289.413 12.9638 289.766 12.8138 290.172 12.8138C290.578 12.8138 290.931 12.9638 291.231 13.2638L291.775 13.8075L292.713 12.87C292.863 12.72 293.041 12.645 293.247 12.645C293.453 12.645 293.631 12.72 293.781 12.87L295.525 14.6138C295.675 14.7638 295.75 14.9419 295.75 15.1481C295.75 15.3544 295.675 15.5325 295.525 15.6825L290.406 20.8013ZM285.062 26.145H282.25V23.3325L287.594 17.9888L290.406 20.8013L285.062 26.145Z" fill="#8F8F8F"/>
<path d="M311.433 14.6323V15.356C311.433 16.124 311.433 17.0889 311.179 18.3647H312.791V19.1646H302.457V18.3647H310.176C310.43 17.1079 310.442 16.1812 310.442 15.4448H303.765V14.6323H311.433ZM311.471 20.3071V23.1509H304.704V24.4839H311.763V25.2964H303.701V22.3638H310.48V21.1069H303.688V20.3071H311.471ZM317.095 16.4985C317.095 17.5649 317.672 18.9487 318.847 19.7358C319.989 18.9741 320.573 17.6157 320.573 16.4985V15.0513H321.576V16.4985C321.563 17.8823 322.389 19.3169 323.874 19.939L323.315 20.7007C322.211 20.2056 321.449 19.2788 321.068 18.187C320.7 19.2852 319.97 20.3008 318.834 20.8276C317.685 20.2944 316.942 19.2344 316.587 18.1235C316.187 19.209 315.419 20.1929 314.34 20.7007L313.807 19.939C315.241 19.2788 316.092 17.7554 316.104 16.4985V15.0513H317.095V16.4985ZM324.014 23.0747V23.8999H313.692V23.0747H324.014ZM334.259 14.1372V25.4233H333.256V14.1372H334.259ZM330.92 15.3687C330.907 18.6187 329.396 21.4878 325.613 23.3032L325.067 22.4907C328.121 21.0435 329.676 18.8789 329.904 16.1812H325.588V15.3687H330.92Z" fill="#8F8F8F"/>
</svg>
