<svg width="309" height="436" viewBox="0 0 309 436" fill="none" xmlns="http://www.w3.org/2000/svg">
<path d="M59.575 21.0875C58.3452 18.1765 56.5622 15.5318 54.325 13.3C52.0932 11.0628 49.4485 9.27984 46.5375 8.05C43.5133 6.77031 40.3086 6.125 37 6.125C33.6914 6.125 30.4867 6.77031 27.4625 8.05C24.5515 9.27984 21.9068 11.0628 19.675 13.3C17.4378 15.5318 15.6548 18.1765 14.425 21.0875C13.1453 24.1117 12.5 27.3164 12.5 30.625C12.5 37.882 15.6883 44.718 21.2445 49.3883L21.3375 49.4648C21.6547 49.7273 22.0539 49.875 22.4641 49.875H51.5414C51.9516 49.875 52.3508 49.7273 52.668 49.4648L52.7609 49.3883C58.3117 44.718 61.5 37.882 61.5 30.625C61.5 27.3164 60.8492 24.1117 59.575 21.0875ZM50.6391 45.7188H23.3609C21.2478 43.8134 19.5589 41.485 18.4038 38.8847C17.2488 36.2844 16.6534 33.4703 16.6562 30.625C16.6562 25.1891 18.7727 20.0813 22.6172 16.2422C26.4617 12.3977 31.5695 10.2812 37 10.2812C42.4359 10.2812 47.5438 12.3977 51.3828 16.2422C55.2273 20.0867 57.3438 25.1945 57.3438 30.625C57.3438 36.4 54.9102 41.8633 50.6391 45.7188ZM43.0977 23.0508C43.0154 22.9694 42.9044 22.9237 42.7887 22.9237C42.673 22.9237 42.5619 22.9694 42.4797 23.0508L37.8586 27.6719C36.8359 27.3984 35.7039 27.6609 34.9 28.4648C34.6153 28.749 34.3894 29.0866 34.2352 29.4582C34.0811 29.8298 34.0018 30.2282 34.0018 30.6305C34.0018 31.0328 34.0811 31.4311 34.2352 31.8027C34.3894 32.1743 34.6153 32.5119 34.9 32.7961C35.1842 33.0808 35.5218 33.3067 35.8934 33.4609C36.265 33.615 36.6633 33.6943 37.0656 33.6943C37.4679 33.6943 37.8663 33.615 38.2379 33.4609C38.6095 33.3067 38.947 33.0808 39.2312 32.7961C39.6121 32.4164 39.886 31.9428 40.0253 31.4233C40.1645 30.9038 40.1641 30.3568 40.0242 29.8375L44.6453 25.2164C44.8148 25.0469 44.8148 24.768 44.6453 24.5984L43.0977 23.0508ZM35.7969 17.5H38.2031C38.4438 17.5 38.6406 17.3031 38.6406 17.0625V12.6875C38.6406 12.4469 38.4438 12.25 38.2031 12.25H35.7969C35.5562 12.25 35.3594 12.4469 35.3594 12.6875V17.0625C35.3594 17.3031 35.5562 17.5 35.7969 17.5ZM50.0156 29.4219V31.8281C50.0156 32.0688 50.2125 32.2656 50.4531 32.2656H54.8281C55.0687 32.2656 55.2656 32.0688 55.2656 31.8281V29.4219C55.2656 29.1812 55.0687 28.9844 54.8281 28.9844H50.4531C50.2125 28.9844 50.0156 29.1812 50.0156 29.4219ZM50.7102 18.6375L49.0094 16.9367C48.9271 16.8553 48.8161 16.8096 48.7004 16.8096C48.5847 16.8096 48.4736 16.8553 48.3914 16.9367L45.2961 20.032C45.2147 20.1143 45.169 20.2253 45.169 20.341C45.169 20.4567 45.2147 20.5678 45.2961 20.65L46.9969 22.3508C47.1664 22.5203 47.4453 22.5203 47.6148 22.3508L50.7102 19.2555C50.8797 19.0859 50.8797 18.807 50.7102 18.6375ZM25.6305 16.9367C25.5482 16.8553 25.4372 16.8096 25.3215 16.8096C25.2058 16.8096 25.0947 16.8553 25.0125 16.9367L23.3117 18.6375C23.2303 18.7197 23.1846 18.8308 23.1846 18.9465C23.1846 19.0622 23.2303 19.1732 23.3117 19.2555L26.407 22.3508C26.5766 22.5203 26.8555 22.5203 27.025 22.3508L28.7258 20.65C28.8953 20.4805 28.8953 20.2016 28.7258 20.032L25.6305 16.9367ZM23.3281 28.9844H18.9531C18.7125 28.9844 18.5156 29.1812 18.5156 29.4219V31.8281C18.5156 32.0688 18.7125 32.2656 18.9531 32.2656H23.3281C23.5688 32.2656 23.7656 32.0688 23.7656 31.8281V29.4219C23.7656 29.1812 23.5688 28.9844 23.3281 28.9844Z" fill="#888888"/>
<path d="M21.5312 76.3203H20.125V62.3203H21.5312V76.3203ZM20.4844 69.0938H17.8672V67.8828H20.4844V69.0938ZM18.2969 75.6172H16.9375V62.6094H18.2969V75.6172ZM10.9219 71.7031C12.0208 71.7031 12.9453 71.6797 13.6953 71.6328C14.4453 71.5807 15.2083 71.4792 15.9844 71.3281L16.1016 72.5547C15.3099 72.7109 14.5286 72.8177 13.7578 72.875C12.9922 72.9271 12.0469 72.9557 10.9219 72.9609H9.99219V71.7031H10.9219ZM15.2344 65.2188H11.4688V72.2969H9.99219V64.0078H15.2344V65.2188ZM28.2188 65.8828C28.2188 66.987 28.0495 68.0443 27.7109 69.0547C27.3724 70.0599 26.8984 70.9479 26.2891 71.7188C25.6797 72.4844 24.9688 73.0651 24.1562 73.4609L23.2266 72.2188C23.9557 71.8906 24.6042 71.401 25.1719 70.75C25.7448 70.0938 26.1901 69.3411 26.5078 68.4922C26.8307 67.638 26.9922 66.7682 26.9922 65.8828V63.4844H28.2188V65.8828ZM28.4844 65.8828C28.4844 66.7318 28.6406 67.5625 28.9531 68.375C29.2708 69.1875 29.7109 69.9115 30.2734 70.5469C30.8411 71.1823 31.4792 71.6589 32.1875 71.9766L31.2969 73.1562C30.5104 72.7812 29.8073 72.224 29.1875 71.4844C28.5729 70.7448 28.0964 69.8906 27.7578 68.9219C27.4193 67.9531 27.25 66.9401 27.25 65.8828V63.4844H28.4844V65.8828ZM34.9453 76.3594H33.4531V62.3203H34.9453V76.3594ZM49.9844 74.5859H37.1719V73.3672H49.9844V74.5859ZM44.2734 73.7109H42.8203V70.1016H44.2734V73.7109ZM40.125 65.6953H47V63.2812H48.4609V70.4922H38.6328V63.2812H40.125V65.6953ZM47 69.2891V66.8906H40.125V69.2891H47ZM62.3438 70.1875H52.5938V68.9766H62.3438V70.1875ZM63.8125 74.4844H51V73.25H63.8125V74.4844ZM62.2109 64.7969H54.0625V69.5H52.5938V63.5859H62.2109V64.7969Z" fill="black"/>
<path d="M28.929 143.458L21.887 150.488M28.929 150.488L21.887 143.458M25.4383 158.741C31.89 158.741 37.0233 153.468 37.0233 146.986C37.0233 140.504 31.7943 135.249 25.3427 135.249M25.4383 158.741C18.9867 158.741 13.662 153.468 13.662 146.986C13.662 140.504 18.891 135.249 25.3427 135.249M25.4383 158.741C25.275 163.711 28.908 165.524 31.4933 165.62H37.0233M25.3427 135.249C25.1793 130.209 28.873 128.436 31.4933 128.326H37.0467M44.035 130.667C44.035 127.367 44.035 125.718 45.2297 124.693C46.422 123.667 48.3447 123.667 52.1853 123.667C56.0283 123.667 57.9487 123.667 59.1433 124.693C60.338 125.718 60.338 127.367 60.338 130.667C60.338 133.966 60.338 135.616 59.1433 136.64C57.951 137.667 56.0283 137.667 52.1853 137.667C48.3447 137.667 46.422 137.667 45.2297 136.64C44.035 135.616 44.035 133.966 44.035 130.667ZM44.035 163.333C44.035 160.034 44.035 158.384 45.2297 157.36C46.422 156.333 48.3447 156.333 52.1853 156.333C56.0283 156.333 57.9487 156.333 59.1433 157.36C60.338 158.384 60.338 160.034 60.338 163.333C60.338 166.633 60.338 168.282 59.1433 169.307C57.951 170.333 56.0283 170.333 52.1853 170.333C48.3447 170.333 46.422 170.333 45.2297 169.307C44.035 168.282 44.035 166.633 44.035 163.333Z" stroke="#888888" stroke-width="4" stroke-linecap="round" stroke-linejoin="round"/>
<path d="M9.11719 192.625H7.66406V189.211H9.11719V192.625ZM8.39844 182.172C9.38802 182.172 10.276 182.328 11.0625 182.641C11.849 182.948 12.4609 183.385 12.8984 183.953C13.3411 184.516 13.5625 185.164 13.5625 185.898C13.5625 186.643 13.3411 187.297 12.8984 187.859C12.4609 188.422 11.849 188.859 11.0625 189.172C10.276 189.479 9.38802 189.633 8.39844 189.633C7.40365 189.633 6.51302 189.479 5.72656 189.172C4.94531 188.859 4.33333 188.422 3.89062 187.859C3.44792 187.297 3.22656 186.643 3.22656 185.898C3.22656 185.164 3.44792 184.516 3.89062 183.953C4.33333 183.385 4.94531 182.948 5.72656 182.641C6.51302 182.328 7.40365 182.172 8.39844 182.172ZM8.39844 183.375C7.6849 183.375 7.04427 183.479 6.47656 183.688C5.90885 183.896 5.46615 184.193 5.14844 184.578C4.83594 184.958 4.67969 185.398 4.67969 185.898C4.67969 186.404 4.83594 186.849 5.14844 187.234C5.46615 187.62 5.90625 187.917 6.46875 188.125C7.03125 188.333 7.67448 188.44 8.39844 188.445C9.1224 188.44 9.76302 188.333 10.3203 188.125C10.8828 187.917 11.3229 187.62 11.6406 187.234C11.9583 186.849 12.1172 186.404 12.1172 185.898C12.1172 185.398 11.9583 184.958 11.6406 184.578C11.3229 184.193 10.8828 183.896 10.3203 183.688C9.75781 183.479 9.11719 183.375 8.39844 183.375ZM14.8281 193.578H2.01562V192.352H14.8281V193.578ZM28.6406 190.812H15.8281V189.633H28.6406V190.812ZM20.5469 195.32H19.0625V190.266H20.5469V195.32ZM25.4141 195.32H23.9297V190.266H25.4141V195.32ZM27.1172 185.586H18.875V187.922H17.3828V184.461H25.6016V183.047H17.3516V181.828H27.1172V185.586ZM27.4219 188.336H17.3828V187.125H27.4219V188.336ZM30.5156 189.688C30.526 188.24 30.7266 186.898 31.1172 185.664C31.5078 184.424 32.0755 183.271 32.8203 182.203H34.3516C33.9922 182.729 33.651 183.406 33.3281 184.234C33.0052 185.062 32.7448 185.956 32.5469 186.914C32.349 187.867 32.25 188.792 32.25 189.688C32.25 190.583 32.349 191.513 32.5469 192.477C32.7448 193.435 33.0052 194.326 33.3281 195.148C33.651 195.977 33.9922 196.656 34.3516 197.188H32.8203C32.0807 196.104 31.513 194.943 31.1172 193.703C30.7266 192.464 30.526 191.125 30.5156 189.688ZM36.8984 194V192.492H39.6016C40.4557 192.492 41.1667 192.331 41.7344 192.008C42.3021 191.685 42.7266 191.216 43.0078 190.602C43.2943 189.982 43.4375 189.224 43.4375 188.328C43.4375 187.443 43.2969 186.693 43.0156 186.078C42.7396 185.458 42.3229 184.99 41.7656 184.672C41.2135 184.354 40.526 184.195 39.7031 184.195H36.8359V182.688H39.8047C40.9141 182.688 41.8672 182.911 42.6641 183.359C43.4661 183.807 44.0781 184.456 44.5 185.305C44.9271 186.154 45.1406 187.161 45.1406 188.328C45.1406 189.505 44.9245 190.518 44.4922 191.367C44.0651 192.216 43.4427 192.867 42.625 193.32C41.8125 193.773 40.8385 194 39.7031 194H36.8984ZM37.75 194H36.0312V182.688H37.75V194ZM46.0234 182.688H54.7969V184.164H51.2812V194H49.5547V184.164H46.0234V182.688ZM63.7266 186.375C63.638 185.896 63.4531 185.487 63.1719 185.148C62.8958 184.805 62.5495 184.544 62.1328 184.367C61.7214 184.19 61.276 184.102 60.7969 184.102C60.1458 184.102 59.5625 184.268 59.0469 184.602C58.5312 184.93 58.125 185.414 57.8281 186.055C57.5365 186.69 57.3906 187.453 57.3906 188.344C57.3906 189.245 57.5365 190.013 57.8281 190.648C58.125 191.284 58.5312 191.766 59.0469 192.094C59.5625 192.422 60.1432 192.586 60.7891 192.586C61.2682 192.586 61.7109 192.497 62.1172 192.32C62.5234 192.143 62.8698 191.888 63.1562 191.555C63.4427 191.216 63.6328 190.815 63.7266 190.352L65.4531 190.359C65.3333 191.094 65.0599 191.75 64.6328 192.328C64.2109 192.906 63.6693 193.357 63.0078 193.68C62.3464 193.997 61.6042 194.156 60.7812 194.156C59.7969 194.156 58.9193 193.922 58.1484 193.453C57.3828 192.984 56.7812 192.31 56.3438 191.43C55.9115 190.549 55.6953 189.521 55.6953 188.344C55.6953 187.156 55.9141 186.125 56.3516 185.25C56.7891 184.375 57.3906 183.703 58.1562 183.234C58.9271 182.766 59.8021 182.531 60.7812 182.531C61.5781 182.531 62.3073 182.685 62.9688 182.992C63.6354 183.294 64.1849 183.734 64.6172 184.312C65.0495 184.891 65.3281 185.578 65.4531 186.375H63.7266ZM69.9141 185.664C70.3047 186.898 70.5052 188.24 70.5156 189.688C70.5052 191.125 70.3021 192.464 69.9062 193.703C69.5156 194.943 68.9505 196.104 68.2109 197.188H66.6797C67.0391 196.656 67.3802 195.977 67.7031 195.148C68.026 194.326 68.2865 193.435 68.4844 192.477C68.6823 191.513 68.7812 190.583 68.7812 189.688C68.7812 188.792 68.6823 187.867 68.4844 186.914C68.2865 185.956 68.026 185.062 67.7031 184.234C67.3802 183.406 67.0391 182.729 66.6797 182.203H68.2109C68.9557 183.271 69.5234 184.424 69.9141 185.664Z" fill="black"/>
<path d="M50.1087 251.925L53.499 248.535L56.7983 251.834L53.408 255.225C56.3782 258.942 57.9979 263.558 58.0018 268.316C58.0058 273.074 56.3937 277.693 53.4298 281.415C50.4658 285.137 46.3256 287.742 41.6874 288.804C37.0492 289.866 32.188 289.321 27.8999 287.258C23.6119 285.196 20.1514 281.739 18.0852 277.453C16.0189 273.166 15.4695 268.306 16.5269 263.667C17.5843 259.027 20.1859 254.885 23.9054 251.917C27.6249 248.95 32.2418 247.334 37 247.333C41.9583 247.333 46.5153 249.051 50.1087 251.925ZM37 284.667C39.1449 284.667 41.2689 284.244 43.2505 283.423C45.2322 282.603 47.0327 281.399 48.5494 279.883C50.0661 278.366 51.2692 276.565 52.09 274.584C52.9109 272.602 53.3333 270.478 53.3333 268.333C53.3333 266.188 52.9109 264.064 52.09 262.083C51.2692 260.101 50.0661 258.301 48.5494 256.784C47.0327 255.267 45.2322 254.064 43.2505 253.243C41.2689 252.422 39.1449 252 37 252C32.6681 252 28.5137 253.721 25.4506 256.784C22.3875 259.847 20.6667 264.001 20.6667 268.333C20.6667 272.665 22.3875 276.82 25.4506 279.883C28.5137 282.946 32.6681 284.667 37 284.667ZM34.6667 256.667H39.3333V270.667H34.6667V256.667ZM27.6667 240.333H46.3333V245H27.6667V240.333Z" fill="#888888"/>
<path d="M11.4219 314.312H9.94531V300.32H11.4219V314.312ZM13.5938 307.148H11.0391V305.914H13.5938V307.148ZM7.75781 301.805C7.75781 303.206 7.53906 304.516 7.10156 305.734C6.66927 306.948 5.97656 308.068 5.02344 309.094C4.07552 310.115 2.85417 310.995 1.35938 311.734L0.53125 310.578C1.81771 309.932 2.88802 309.188 3.74219 308.344C4.59635 307.495 5.23698 306.549 5.66406 305.508C6.09115 304.461 6.30469 303.312 6.30469 302.062V301.805H7.75781ZM7.05469 303.039H1.21875V301.805H7.05469V303.039ZM27.1406 308.492H14.3438V307.281H27.1406V308.492ZM21.4453 307.812H19.9844V305.234H21.4453V307.812ZM21.2266 301.141C21.2266 301.958 20.9766 302.706 20.4766 303.383C19.9818 304.06 19.3073 304.625 18.4531 305.078C17.6042 305.531 16.6615 305.844 15.625 306.016L15.0781 304.836C15.974 304.716 16.7943 304.474 17.5391 304.109C18.2891 303.745 18.8802 303.302 19.3125 302.781C19.7448 302.26 19.9609 301.714 19.9609 301.141V300.547H21.2266V301.141ZM21.4609 301.141C21.4609 301.719 21.6797 302.268 22.1172 302.789C22.5547 303.31 23.1484 303.753 23.8984 304.117C24.6484 304.477 25.4714 304.716 26.3672 304.836L25.7734 306.016C24.7474 305.844 23.8099 305.534 22.9609 305.086C22.1172 304.633 21.4453 304.065 20.9453 303.383C20.4505 302.701 20.2031 301.953 20.2031 301.141V300.547H21.4609V301.141ZM25.5391 314.32H24.0547V310.906H15.7578V309.734H25.5391V314.32ZM40.5234 306.781H37.9141V305.57H40.5234V306.781ZM33.4844 309.852C34.625 309.841 35.5521 309.812 36.2656 309.766C36.9844 309.714 37.7188 309.622 38.4688 309.492L38.5938 310.688C37.8542 310.828 37.1276 310.922 36.4141 310.969C35.7057 311.016 34.7292 311.042 33.4844 311.047H32.5859V309.852H33.4844ZM37.8047 303.164H34V310.266H32.5859V301.984H37.8047V303.164ZM37.1953 306.914H33.5703V305.75H37.1953V306.914ZM44.1094 314.32H42.6875V300.32H44.1094V314.32ZM41.2109 313.633H39.8125V300.633H41.2109V313.633ZM52.7578 302.312C52.7578 303.292 52.4948 304.211 51.9688 305.07C51.4479 305.924 50.7526 306.648 49.8828 307.242C49.013 307.836 48.0625 308.247 47.0312 308.477L46.3672 307.234C47.2578 307.057 48.0938 306.724 48.875 306.234C49.6562 305.745 50.2812 305.154 50.75 304.461C51.2188 303.768 51.4531 303.052 51.4531 302.312V301.266H52.7578V302.312ZM53.0156 302.312C53.0156 303.047 53.2526 303.763 53.7266 304.461C54.2005 305.159 54.8307 305.755 55.6172 306.25C56.4036 306.74 57.2396 307.068 58.125 307.234L57.4609 308.477C56.4401 308.247 55.4948 307.839 54.625 307.25C53.7552 306.661 53.0573 305.938 52.5312 305.078C52.0052 304.219 51.7422 303.297 51.7422 302.312V301.266H53.0156V302.312ZM58.7188 312.484H45.9062V311.258H58.7188V312.484ZM71.1016 308.977H61.3359V307.781H71.1016V308.977ZM72.5469 312.562H59.7344V311.344H72.5469V312.562ZM70.9609 302.703H62.8516V308.125H61.3359V301.469H70.9609V302.703ZM70.6484 305.75H62.3906V304.578H70.6484V305.75Z" fill="black"/>
<path d="M25.8226 404.395C25.4394 404.01 25.2479 403.52 25.2479 402.926C25.2479 402.332 25.4394 401.842 25.8226 401.457L35.8019 391.387C36.6031 390.582 37.5958 390.18 38.7801 390.18C39.9644 390.18 40.9571 390.582 41.7582 391.387L46.0948 395.74L55.4471 386.351C55.8651 385.932 56.3528 385.722 56.9101 385.722C57.4674 385.722 57.955 385.932 58.373 386.351C58.791 386.771 59 387.27 59 387.847C59 388.425 58.791 388.923 58.373 389.341L49.0729 398.73C48.2718 399.534 47.2881 399.936 46.1219 399.936C44.9558 399.936 43.9714 399.534 43.1689 398.73L38.7801 394.324L28.7485 404.395C28.3653 404.779 27.8867 404.981 27.3127 404.999C26.7387 405.017 26.242 404.816 25.8226 404.395ZM20.1798 403.765C19.0304 403.765 18.0467 403.355 17.2289 402.534C16.411 401.713 16.0014 400.724 16 399.569V370.196C16 369.042 16.4096 368.055 17.2289 367.234C18.0481 366.413 19.0318 366.001 20.1798 366H49.4386C50.5881 366 51.5724 366.411 52.3917 367.234C53.2109 368.056 53.6199 369.044 53.6185 370.196V378.588C53.6185 379.183 53.4178 379.681 53.0166 380.084C52.6153 380.487 52.1193 380.688 51.5286 380.686H20.1798V403.765Z" fill="#888888"/>
<path d="M36.2812 427.867H23.5V426.68H36.2812V427.867ZM30.6172 427.156H29.1406V424.945H30.6172V427.156ZM34.8125 425.477H25.1641V424.305H34.8125V425.477ZM34.7188 420.891H26.6484V424.938H25.1641V419.711H34.7188V420.891ZM34.3594 423.125H26.2109V422.016H34.3594V423.125ZM29.8906 428.781C30.9219 428.771 31.7943 428.854 32.5078 429.031C33.2266 429.208 33.776 429.466 34.1562 429.805C34.5365 430.143 34.7266 430.555 34.7266 431.039C34.7266 431.529 34.5365 431.94 34.1562 432.273C33.776 432.612 33.2266 432.867 32.5078 433.039C31.7943 433.216 30.9219 433.305 29.8906 433.305C28.8594 433.305 27.9792 433.216 27.25 433.039C26.5208 432.867 25.9688 432.612 25.5938 432.273C25.2188 431.94 25.0312 431.529 25.0312 431.039C25.0312 430.549 25.2214 430.138 25.6016 429.805C25.9818 429.466 26.5339 429.208 27.2578 429.031C27.9818 428.854 28.8594 428.771 29.8906 428.781ZM29.8906 429.891C29.151 429.891 28.5312 429.935 28.0312 430.023C27.5365 430.107 27.1615 430.234 26.9062 430.406C26.651 430.573 26.5234 430.784 26.5234 431.039C26.5234 431.294 26.6484 431.508 26.8984 431.68C27.1484 431.846 27.526 431.969 28.0312 432.047C28.5365 432.13 29.1562 432.172 29.8906 432.172C30.6198 432.172 31.2318 432.13 31.7266 432.047C32.2214 431.969 32.5964 431.846 32.8516 431.68C33.1068 431.508 33.2344 431.294 33.2344 431.039C33.2344 430.784 33.1068 430.573 32.8516 430.406C32.6016 430.234 32.2266 430.107 31.7266 430.023C31.2266 429.935 30.6146 429.891 29.8906 429.891ZM45.8672 424.375H42.8125V423.156H45.8672V424.375ZM45.8438 427.875H42.7188V426.664H45.8438V427.875ZM49.375 433.32H47.9688V419.32H49.375V433.32ZM46.5156 432.648H45.1016V419.68H46.5156V432.648ZM43.3984 421.07C43.3984 422.367 43.2214 423.576 42.8672 424.695C42.513 425.81 41.9479 426.844 41.1719 427.797C40.401 428.75 39.3932 429.596 38.1484 430.336L37.2578 429.273C38.3411 428.633 39.2292 427.911 39.9219 427.109C40.6198 426.302 41.1328 425.422 41.4609 424.469C41.7943 423.51 41.9609 422.471 41.9609 421.352V421.07H43.3984ZM42.5078 422.281H37.9531V421.07H42.5078V422.281Z" fill="black"/>
<path d="M127.674 10.6389V43.2778H166.441C167.002 43.2778 167.54 43.4973 167.936 43.888C168.333 44.2787 168.556 44.8086 168.556 45.3611C168.556 45.9136 168.333 46.4435 167.936 46.8342C167.54 47.2249 167.002 47.4444 166.441 47.4444H125.559C124.998 47.4444 124.46 47.2249 124.064 46.8342C123.667 46.4435 123.444 45.9136 123.444 45.3611V10.6389C123.444 10.0863 123.667 9.55644 124.064 9.16574C124.46 8.77504 124.998 8.55554 125.559 8.55554C126.12 8.55554 126.658 8.77504 127.054 9.16574C127.451 9.55644 127.674 10.0863 127.674 10.6389ZM167.935 17.6667L153.133 32.25C152.737 32.6401 152.199 32.8593 151.639 32.8593C151.079 32.8593 150.541 32.6401 150.145 32.25L143.181 25.3889L135.512 32.9444C135.111 33.3129 134.581 33.5136 134.032 33.5043C133.484 33.4949 132.961 33.2763 132.574 32.8944C132.186 32.5125 131.964 31.9973 131.955 31.4573C131.945 30.9173 132.149 30.3948 132.523 30L141.686 20.9722C142.083 20.5821 142.62 20.3629 143.181 20.3629C143.741 20.3629 144.278 20.5821 144.675 20.9722L151.639 27.8333L164.947 14.7222C165.347 14.3538 165.878 14.153 166.426 14.1624C166.974 14.1717 167.497 14.3903 167.885 14.7722C168.272 15.1541 168.494 15.6694 168.504 16.2093C168.513 16.7493 168.309 17.2718 167.935 17.6667Z" fill="#888888"/>
<path d="M121.109 69.5234H119.648V62.3203H121.109V69.5234ZM121.125 73.7031H113.414V75.4844H111.961V72.5703H119.656V71.3672H111.93V70.1953H121.125V73.7031ZM121.594 76.1875H111.961V75H121.594V76.1875ZM114.328 63.7656C114.328 64.6302 114.164 65.4427 113.836 66.2031C113.508 66.9635 113.042 67.625 112.438 68.1875C111.833 68.75 111.125 69.1693 110.312 69.4453L109.555 68.2734C110.279 68.0286 110.906 67.6797 111.438 67.2266C111.969 66.7682 112.378 66.2396 112.664 65.6406C112.951 65.0365 113.094 64.4115 113.094 63.7656V62.6953H114.328V63.7656ZM114.617 63.7656C114.617 64.3958 114.755 64.9948 115.031 65.5625C115.312 66.1302 115.716 66.6276 116.242 67.0547C116.768 67.4818 117.385 67.8099 118.094 68.0391L117.367 69.1875C116.56 68.9167 115.854 68.5156 115.25 67.9844C114.651 67.4531 114.188 66.8255 113.859 66.1016C113.531 65.3776 113.367 64.599 113.367 63.7656V62.6953H114.617V63.7656ZM135.359 76.3203H133.953V62.3203H135.359V76.3203ZM131.547 68.4922H128.93V67.2969H131.547V68.4922ZM132.516 75.625H131.117V62.6328H132.516V75.625ZM127.281 66.2344C127.281 67.276 127.154 68.2734 126.898 69.2266C126.648 70.1797 126.284 71.0365 125.805 71.7969C125.326 72.5573 124.742 73.151 124.055 73.5781L123.133 72.4688C123.779 72.0833 124.328 71.5625 124.781 70.9062C125.234 70.25 125.573 69.5208 125.797 68.7188C126.021 67.9115 126.133 67.0833 126.133 66.2344V64.5312H127.281V66.2344ZM127.562 66.2344C127.562 67.0521 127.672 67.8438 127.891 68.6094C128.109 69.3698 128.44 70.0599 128.883 70.6797C129.326 71.2943 129.865 71.7865 130.5 72.1562L129.609 73.25C128.927 72.8333 128.349 72.2682 127.875 71.5547C127.406 70.8359 127.052 70.0208 126.812 69.1094C126.578 68.1979 126.461 67.2396 126.461 66.2344V64.5312H127.562V66.2344ZM129.977 65.1094H123.57V63.8984H129.977V65.1094ZM153.109 76.3203H151.688V62.3203H153.109V76.3203ZM149.445 68.8281H145.945V67.5938H149.445V68.8281ZM150.211 75.6328H148.812V62.6328H150.211V75.6328ZM142.5 71.8047C143.635 71.8047 144.57 71.776 145.305 71.7188C146.039 71.6615 146.784 71.5521 147.539 71.3906L147.68 72.6328C146.919 72.7891 146.161 72.8932 145.406 72.9453C144.651 72.9974 143.682 73.0286 142.5 73.0391H141.586V71.8047H142.5ZM146.891 65.2109H143.031V72.2969H141.586V64.0078H146.891V65.2109ZM166.508 76.3594H165.016V62.3203H166.508V76.3594ZM159.008 63.375C159.706 63.375 160.328 63.5781 160.875 63.9844C161.422 64.3906 161.849 64.9635 162.156 65.7031C162.464 66.4427 162.617 67.3047 162.617 68.2891C162.617 69.2786 162.464 70.1432 162.156 70.8828C161.849 71.6224 161.422 72.1953 160.875 72.6016C160.328 73.0026 159.706 73.2031 159.008 73.2031C158.31 73.2031 157.685 73.0026 157.133 72.6016C156.586 72.1953 156.159 71.6224 155.852 70.8828C155.544 70.1432 155.391 69.2786 155.391 68.2891C155.391 67.3047 155.544 66.4427 155.852 65.7031C156.159 64.9635 156.586 64.3906 157.133 63.9844C157.685 63.5781 158.31 63.375 159.008 63.375ZM159.008 64.7031C158.581 64.7031 158.201 64.849 157.867 65.1406C157.534 65.4323 157.276 65.849 157.094 66.3906C156.917 66.9271 156.828 67.5599 156.828 68.2891C156.828 69.013 156.917 69.6458 157.094 70.1875C157.276 70.7292 157.534 71.1458 157.867 71.4375C158.201 71.724 158.581 71.8672 159.008 71.8672C159.435 71.8672 159.812 71.724 160.141 71.4375C160.474 71.1458 160.732 70.7292 160.914 70.1875C161.096 69.6458 161.188 69.013 161.188 68.2891C161.188 67.5599 161.096 66.9271 160.914 66.3906C160.732 65.849 160.477 65.4323 160.148 65.1406C159.82 64.849 159.44 64.7031 159.008 64.7031ZM180.414 76.3594H178.938V62.3203H180.414V76.3594ZM179.156 68.7031H176.148V67.4922H179.156V68.7031ZM170.461 71.8203C171.826 71.8255 172.971 71.7995 173.898 71.7422C174.826 71.6849 175.76 71.5781 176.703 71.4219L176.859 72.6328C175.88 72.7839 174.909 72.8906 173.945 72.9531C172.982 73.0104 171.82 73.0391 170.461 73.0391H169.375V71.8203H170.461ZM175.922 64.7891H170.867V72.2188H169.375V63.5703H175.922V64.7891ZM175.336 68.6875H170.5V67.5H175.336V68.6875Z" fill="black"/>
<path d="M166.593 134.131L158.869 126.407C158.464 125.999 157.982 125.676 157.451 125.456C156.92 125.236 156.351 125.123 155.776 125.125H128.5C127.34 125.125 126.227 125.586 125.406 126.406C124.586 127.227 124.125 128.34 124.125 129.5V164.5C124.125 165.66 124.586 166.773 125.406 167.594C126.227 168.414 127.34 168.875 128.5 168.875H163.5C164.66 168.875 165.773 168.414 166.594 167.594C167.414 166.773 167.875 165.66 167.875 164.5V137.224C167.877 136.649 167.764 136.08 167.544 135.549C167.324 135.018 167.001 134.536 166.593 134.131ZM153.875 163.625H138.125V154H153.875V163.625ZM162.625 163.625H159.125V153.125C159.125 151.965 158.664 150.852 157.844 150.031C157.023 149.211 155.91 148.75 154.75 148.75H137.25C136.09 148.75 134.977 149.211 134.156 150.031C133.336 150.852 132.875 151.965 132.875 153.125V163.625H129.375V130.375H155.406L162.625 137.594V163.625ZM153.875 137.375C153.875 138.071 153.598 138.739 153.106 139.231C152.614 139.723 151.946 140 151.25 140H139C138.304 140 137.636 139.723 137.144 139.231C136.652 138.739 136.375 138.071 136.375 137.375C136.375 136.679 136.652 136.011 137.144 135.519C137.636 135.027 138.304 134.75 139 134.75H151.25C151.946 134.75 152.614 135.027 153.106 135.519C153.598 136.011 153.875 136.679 153.875 137.375Z" fill="#888888"/>
<path d="M120.125 186.109H117.102V184.891H120.125V186.109ZM121.188 189.656H119.703V181.32H121.188V189.656ZM116.492 190.055C117.477 190.055 118.323 190.159 119.031 190.367C119.745 190.576 120.289 190.878 120.664 191.273C121.044 191.664 121.234 192.135 121.234 192.688C121.234 193.24 121.044 193.711 120.664 194.102C120.289 194.497 119.745 194.799 119.031 195.008C118.323 195.216 117.477 195.323 116.492 195.328C115.518 195.323 114.677 195.216 113.969 195.008C113.26 194.799 112.716 194.497 112.336 194.102C111.956 193.711 111.766 193.24 111.766 192.688C111.766 192.135 111.956 191.664 112.336 191.273C112.716 190.878 113.26 190.576 113.969 190.367C114.677 190.159 115.518 190.055 116.492 190.055ZM116.492 191.195C115.82 191.195 115.237 191.255 114.742 191.375C114.253 191.49 113.878 191.659 113.617 191.883C113.362 192.107 113.234 192.375 113.234 192.688C113.234 192.99 113.362 193.253 113.617 193.477C113.878 193.701 114.253 193.872 114.742 193.992C115.237 194.107 115.82 194.164 116.492 194.164C117.18 194.164 117.766 194.107 118.25 193.992C118.74 193.872 119.112 193.701 119.367 193.477C119.628 193.253 119.758 192.99 119.758 192.688C119.758 192.375 119.628 192.107 119.367 191.883C119.112 191.659 118.74 191.49 118.25 191.375C117.766 191.255 117.18 191.195 116.492 191.195ZM114.242 183.82C114.242 184.68 114.081 185.492 113.758 186.258C113.44 187.023 112.984 187.695 112.391 188.273C111.797 188.846 111.102 189.281 110.305 189.578L109.531 188.391C110.24 188.141 110.857 187.779 111.383 187.305C111.914 186.831 112.32 186.292 112.602 185.688C112.883 185.078 113.023 184.456 113.023 183.82V182.734H114.242V183.82ZM114.523 183.805C114.523 184.393 114.659 184.966 114.93 185.523C115.201 186.076 115.591 186.57 116.102 187.008C116.612 187.44 117.211 187.776 117.898 188.016L117.141 189.195C116.354 188.919 115.674 188.51 115.102 187.969C114.529 187.427 114.089 186.797 113.781 186.078C113.474 185.354 113.32 184.596 113.32 183.805V182.734H114.523V183.805ZM117.539 183.508H109.977V182.281H117.539V183.508ZM128.211 185.453C128.211 186.458 128.036 187.443 127.688 188.406C127.339 189.365 126.859 190.219 126.25 190.969C125.641 191.714 124.951 192.273 124.18 192.648L123.305 191.484C123.997 191.151 124.625 190.664 125.188 190.023C125.75 189.378 126.19 188.656 126.508 187.859C126.831 187.057 126.992 186.255 126.992 185.453V183.375H128.211V185.453ZM128.492 185.453C128.492 186.224 128.648 186.99 128.961 187.75C129.279 188.51 129.719 189.188 130.281 189.781C130.849 190.375 131.487 190.826 132.195 191.133L131.375 192.297C130.583 191.943 129.878 191.417 129.258 190.719C128.643 190.021 128.164 189.216 127.82 188.305C127.482 187.393 127.312 186.443 127.312 185.453V183.375H128.492V185.453ZM131.695 183.961H123.797V182.742H131.695V183.961ZM134.945 195.32H133.453V181.32H134.945V195.32ZM152.68 195.359H151.188V181.32H152.68V195.359ZM145.18 182.375C145.878 182.375 146.5 182.578 147.047 182.984C147.594 183.391 148.021 183.964 148.328 184.703C148.635 185.443 148.789 186.305 148.789 187.289C148.789 188.279 148.635 189.143 148.328 189.883C148.021 190.622 147.594 191.195 147.047 191.602C146.5 192.003 145.878 192.203 145.18 192.203C144.482 192.203 143.857 192.003 143.305 191.602C142.758 191.195 142.331 190.622 142.023 189.883C141.716 189.143 141.562 188.279 141.562 187.289C141.562 186.305 141.716 185.443 142.023 184.703C142.331 183.964 142.758 183.391 143.305 182.984C143.857 182.578 144.482 182.375 145.18 182.375ZM145.18 183.703C144.753 183.703 144.372 183.849 144.039 184.141C143.706 184.432 143.448 184.849 143.266 185.391C143.089 185.927 143 186.56 143 187.289C143 188.013 143.089 188.646 143.266 189.188C143.448 189.729 143.706 190.146 144.039 190.438C144.372 190.724 144.753 190.867 145.18 190.867C145.607 190.867 145.984 190.724 146.312 190.438C146.646 190.146 146.904 189.729 147.086 189.188C147.268 188.646 147.359 188.013 147.359 187.289C147.359 186.56 147.268 185.927 147.086 185.391C146.904 184.849 146.648 184.432 146.32 184.141C145.992 183.849 145.612 183.703 145.18 183.703ZM162.258 191.867H155.688V182.672H162.258V191.867ZM157.148 190.68H160.805V183.844H157.148V190.68ZM166.508 195.359H165.016V181.32H166.508V195.359ZM173.602 185.453C173.602 186.458 173.427 187.443 173.078 188.406C172.729 189.365 172.25 190.219 171.641 190.969C171.031 191.714 170.341 192.273 169.57 192.648L168.695 191.484C169.388 191.151 170.016 190.664 170.578 190.023C171.141 189.378 171.581 188.656 171.898 187.859C172.221 187.057 172.383 186.255 172.383 185.453V183.375H173.602V185.453ZM173.883 185.453C173.883 186.224 174.039 186.99 174.352 187.75C174.669 188.51 175.109 189.188 175.672 189.781C176.24 190.375 176.878 190.826 177.586 191.133L176.766 192.297C175.974 191.943 175.268 191.417 174.648 190.719C174.034 190.021 173.555 189.216 173.211 188.305C172.872 187.393 172.703 186.443 172.703 185.453V183.375H173.883V185.453ZM177.086 183.961H169.188V182.742H177.086V183.961ZM180.336 195.32H178.844V181.32H180.336V195.32Z" fill="black"/>
<path d="M164.923 278.81L153 258.37V247.333H155.333C155.952 247.333 156.546 247.087 156.983 246.65C157.421 246.212 157.667 245.619 157.667 245C157.667 244.381 157.421 243.788 156.983 243.35C156.546 242.912 155.952 242.667 155.333 242.667H136.667C136.048 242.667 135.454 242.912 135.017 243.35C134.579 243.788 134.333 244.381 134.333 245C134.333 245.619 134.579 246.212 135.017 246.65C135.454 247.087 136.048 247.333 136.667 247.333H139V258.37L127.077 278.81C126.457 279.873 126.129 281.081 126.125 282.312C126.122 283.542 126.442 284.752 127.055 285.819C127.668 286.886 128.551 287.773 129.616 288.39C130.681 289.007 131.889 289.332 133.12 289.333H158.787C160.017 289.332 161.226 289.007 162.291 288.39C163.355 287.773 164.239 286.886 164.852 285.819C165.464 284.752 165.785 283.542 165.781 282.312C165.778 281.081 165.449 279.873 164.83 278.81H164.923ZM143.34 260.143C143.546 259.797 143.658 259.403 143.667 259V247.333H148.333V259C148.338 259.411 148.45 259.813 148.66 260.167L150.667 263.667H141.333L143.34 260.143ZM160.887 283.477C160.683 283.829 160.391 284.123 160.039 284.327C159.687 284.532 159.287 284.641 158.88 284.643H133.213C132.806 284.641 132.407 284.532 132.055 284.327C131.703 284.123 131.41 283.829 131.207 283.477C131.002 283.122 130.894 282.72 130.894 282.31C130.894 281.9 131.002 281.498 131.207 281.143L138.603 268.333H153.42L160.887 281.167C161.091 281.521 161.199 281.924 161.199 282.333C161.199 282.743 161.091 283.145 160.887 283.5V283.477ZM141.333 273C140.872 273 140.421 273.137 140.037 273.393C139.653 273.65 139.354 274.014 139.178 274.44C139.001 274.867 138.955 275.336 139.045 275.789C139.135 276.241 139.357 276.657 139.683 276.983C140.01 277.31 140.425 277.532 140.878 277.622C141.331 277.712 141.8 277.666 142.226 277.489C142.653 277.312 143.017 277.013 143.273 276.63C143.53 276.246 143.667 275.795 143.667 275.333C143.667 274.714 143.421 274.121 142.983 273.683C142.546 273.246 141.952 273 141.333 273ZM150.667 275.333C150.205 275.333 149.754 275.47 149.37 275.727C148.987 275.983 148.688 276.347 148.511 276.774C148.334 277.2 148.288 277.669 148.378 278.122C148.468 278.574 148.69 278.99 149.017 279.317C149.343 279.643 149.759 279.865 150.211 279.955C150.664 280.045 151.133 279.999 151.56 279.822C151.986 279.646 152.35 279.347 152.607 278.963C152.863 278.579 153 278.128 153 277.667C153 277.048 152.754 276.454 152.317 276.017C151.879 275.579 151.285 275.333 150.667 275.333Z" fill="#888888"/>
<path d="M111.398 304.961H114.055V301.633H115.43V310.891H109.992V301.633H111.398V304.961ZM114.055 309.68V306.148H111.398V309.68H114.055ZM121.562 314.32H120.133V300.32H121.562V314.32ZM120.625 307.023H118.008V305.812H120.625V307.023ZM118.414 313.633H117.008V300.586H118.414V313.633ZM130.445 309.43H128.992V307.328H130.445V309.43ZM136.094 307.586H123.367V306.469H136.094V307.586ZM130.445 301.961H128.984V300.266H130.445V301.961ZM130.203 302.305C130.203 302.997 129.956 303.602 129.461 304.117C128.966 304.633 128.284 305.039 127.414 305.336C126.544 305.633 125.539 305.826 124.398 305.914L123.984 304.797C124.958 304.74 125.818 304.602 126.562 304.383C127.307 304.159 127.883 303.87 128.289 303.516C128.695 303.156 128.898 302.753 128.898 302.305V302.07H130.203V302.305ZM130.539 302.305C130.539 302.753 130.742 303.156 131.148 303.516C131.555 303.87 132.13 304.159 132.875 304.383C133.625 304.602 134.487 304.74 135.461 304.797L135.023 305.914C133.893 305.826 132.893 305.633 132.023 305.336C131.159 305.039 130.477 304.633 129.977 304.117C129.482 303.602 129.234 302.997 129.234 302.305V302.07H130.539V302.305ZM134.836 302.641H124.633V301.508H134.836V302.641ZM134.492 311.906H126.352V313.5H124.891V310.875H133.039V309.844H124.867V308.75H134.492V311.906ZM134.898 314.188H124.891V313.07H134.898V314.188ZM149.523 306.781H146.914V305.57H149.523V306.781ZM142.484 309.852C143.625 309.841 144.552 309.812 145.266 309.766C145.984 309.714 146.719 309.622 147.469 309.492L147.594 310.688C146.854 310.828 146.128 310.922 145.414 310.969C144.706 311.016 143.729 311.042 142.484 311.047H141.586V309.852H142.484ZM146.805 303.164H143V310.266H141.586V301.984H146.805V303.164ZM146.195 306.914H142.57V305.75H146.195V306.914ZM153.109 314.32H151.688V300.32H153.109V314.32ZM150.211 313.633H148.812V300.633H150.211V313.633ZM161.758 302.312C161.758 303.292 161.495 304.211 160.969 305.07C160.448 305.924 159.753 306.648 158.883 307.242C158.013 307.836 157.062 308.247 156.031 308.477L155.367 307.234C156.258 307.057 157.094 306.724 157.875 306.234C158.656 305.745 159.281 305.154 159.75 304.461C160.219 303.768 160.453 303.052 160.453 302.312V301.266H161.758V302.312ZM162.016 302.312C162.016 303.047 162.253 303.763 162.727 304.461C163.201 305.159 163.831 305.755 164.617 306.25C165.404 306.74 166.24 307.068 167.125 307.234L166.461 308.477C165.44 308.247 164.495 307.839 163.625 307.25C162.755 306.661 162.057 305.938 161.531 305.078C161.005 304.219 160.742 303.297 160.742 302.312V301.266H162.016V302.312ZM167.719 312.484H154.906V311.258H167.719V312.484ZM180.102 308.977H170.336V307.781H180.102V308.977ZM181.547 312.562H168.734V311.344H181.547V312.562ZM179.961 302.703H171.852V308.125H170.336V301.469H179.961V302.703ZM179.648 305.75H171.391V304.578H179.648V305.75Z" fill="black"/>
<path d="M168 405V379.689C168 376.751 168 375.28 167.243 374.142C166.486 373.004 165.147 372.458 162.469 371.364L149.269 365.987C147.654 365.329 146.849 365 146 365C145.151 365 144.346 365.329 142.731 365.987L129.531 371.364C126.853 372.458 125.514 373.004 124.757 374.142C124 375.28 124 376.751 124 379.689V405M154.8 400.556V405M137.2 400.556V405" stroke="#888888" stroke-width="4" stroke-linecap="round" stroke-linejoin="round"/>
<path d="M135.5 387.667L136.067 385.403C136.914 382.008 137.339 380.31 138.606 379.323C139.87 378.333 141.62 378.333 145.12 378.333H146.88C150.38 378.333 152.13 378.333 153.394 379.323C154.661 380.31 155.086 382.006 155.933 385.403L156.5 387.667M137.833 393.477V393.5M154.167 393.477V393.5M157.667 387.667H134.333C133.714 387.667 133.121 387.913 132.683 388.35C132.246 388.788 132 389.381 132 390V397C132 397.619 132.246 398.212 132.683 398.65C133.121 399.088 133.714 399.333 134.333 399.333H157.667C158.285 399.333 158.879 399.088 159.317 398.65C159.754 398.212 160 397.619 160 397V390C160 389.381 159.754 388.788 159.317 388.35C158.879 387.913 158.285 387.667 157.667 387.667Z" stroke="#888888" stroke-width="4" stroke-linecap="round" stroke-linejoin="round"/>
<path d="M122.594 426.047H120.039V424.812H122.594V426.047ZM120.422 433.312H118.945V419.32H120.422V433.312ZM111.531 429.367H110.055V420.688H111.531V429.367ZM111.203 428.57C112.302 428.57 113.388 428.521 114.461 428.422C115.534 428.323 116.622 428.159 117.727 427.93L117.906 429.18C116.786 429.409 115.677 429.57 114.578 429.664C113.484 429.758 112.359 429.805 111.203 429.805H110.055V428.57H111.203ZM127.914 420.312C128.648 420.312 129.302 420.456 129.875 420.742C130.448 421.023 130.896 421.419 131.219 421.93C131.547 422.435 131.711 423.01 131.711 423.656C131.711 424.302 131.547 424.88 131.219 425.391C130.896 425.896 130.448 426.292 129.875 426.578C129.302 426.859 128.648 427 127.914 427C127.185 427 126.529 426.859 125.945 426.578C125.362 426.292 124.906 425.896 124.578 425.391C124.255 424.88 124.094 424.302 124.094 423.656C124.094 423.01 124.255 422.435 124.578 421.93C124.906 421.419 125.362 421.023 125.945 420.742C126.529 420.456 127.185 420.312 127.914 420.312ZM127.914 421.609C127.461 421.609 127.055 421.693 126.695 421.859C126.341 422.026 126.062 422.266 125.859 422.578C125.656 422.891 125.555 423.25 125.555 423.656C125.555 424.062 125.656 424.419 125.859 424.727C126.062 425.034 126.341 425.273 126.695 425.445C127.055 425.617 127.461 425.703 127.914 425.703C128.367 425.703 128.771 425.617 129.125 425.445C129.484 425.273 129.763 425.034 129.961 424.727C130.164 424.419 130.266 424.062 130.266 423.656C130.266 423.25 130.164 422.891 129.961 422.578C129.763 422.266 129.484 422.026 129.125 421.859C128.771 421.693 128.367 421.609 127.914 421.609ZM134.922 433.359H133.445V419.32H134.922V433.359ZM123.414 429.109C124.57 429.104 125.617 429.091 126.555 429.07C127.497 429.049 128.497 429.008 129.555 428.945C130.617 428.878 131.62 428.776 132.562 428.641L132.672 429.727C131.698 429.904 130.685 430.039 129.633 430.133C128.586 430.221 127.602 430.279 126.68 430.305C125.758 430.331 124.734 430.344 123.609 430.344L123.414 429.109ZM145.602 423.828C145.602 424.802 145.44 425.745 145.117 426.656C144.799 427.562 144.346 428.367 143.758 429.07C143.174 429.768 142.503 430.294 141.742 430.648L140.906 429.5C141.604 429.182 142.216 428.724 142.742 428.125C143.273 427.526 143.685 426.854 143.977 426.109C144.273 425.359 144.422 424.599 144.422 423.828V422.727H145.602V423.828ZM145.875 423.828C145.875 424.547 146.013 425.26 146.289 425.969C146.57 426.677 146.971 427.32 147.492 427.898C148.013 428.477 148.612 428.932 149.289 429.266L148.445 430.406C147.695 430.047 147.039 429.529 146.477 428.852C145.919 428.169 145.487 427.393 145.18 426.523C144.878 425.648 144.727 424.75 144.727 423.828V422.727H145.875V423.828ZM148.945 422.906H141.32V421.711H148.945V422.906ZM145.898 422.359H144.414V419.602H145.898V422.359ZM151.984 433.32H150.508V419.32H151.984V433.32ZM154.242 426.219H151.648V424.961H154.242V426.219ZM167.961 422.656H165.445V421.422H167.961V422.656ZM167.961 425.617H165.445V424.367H167.961V425.617ZM165.906 427.797H164.43V419.336H165.906V427.797ZM156.609 425.812C158.021 425.812 159.211 425.784 160.18 425.727C161.154 425.664 162.146 425.544 163.156 425.367L163.312 426.586C162.292 426.763 161.281 426.883 160.281 426.945C159.286 427.008 158.062 427.039 156.609 427.039H155.492V425.812H156.609ZM161.844 424.102H156.961V426.602H155.492V422.961H160.398V421.391H155.469V420.188H161.844V424.102ZM161.375 428.141C162.328 428.141 163.154 428.245 163.852 428.453C164.549 428.656 165.086 428.953 165.461 429.344C165.841 429.734 166.031 430.201 166.031 430.742C166.031 431.273 165.844 431.729 165.469 432.109C165.099 432.495 164.565 432.789 163.867 432.992C163.169 433.195 162.339 433.297 161.375 433.297C160.401 433.297 159.562 433.195 158.859 432.992C158.161 432.789 157.622 432.495 157.242 432.109C156.867 431.729 156.68 431.273 156.68 430.742C156.68 430.201 156.867 429.734 157.242 429.344C157.622 428.953 158.164 428.656 158.867 428.453C159.576 428.245 160.411 428.141 161.375 428.141ZM161.375 429.305C160.698 429.305 160.115 429.362 159.625 429.477C159.141 429.586 158.771 429.75 158.516 429.969C158.26 430.182 158.133 430.44 158.133 430.742C158.133 431.034 158.26 431.289 158.516 431.508C158.771 431.721 159.141 431.885 159.625 432C160.115 432.109 160.698 432.164 161.375 432.164C162.052 432.164 162.63 432.109 163.109 432C163.589 431.885 163.953 431.724 164.203 431.516C164.458 431.302 164.586 431.044 164.586 430.742C164.586 430.44 164.458 430.182 164.203 429.969C163.953 429.75 163.586 429.586 163.102 429.477C162.622 429.362 162.047 429.305 161.375 429.305ZM181.516 426.25H168.734V425.07H181.516V426.25ZM179.984 424.047H170.398V422.859H179.984V424.047ZM179.859 420.922H171.883V423.82H170.398V419.742H179.859V420.922ZM179.883 430.742H171.742V432.359H170.281V429.656H178.43V428.492H170.258V427.359H179.883V430.742ZM180.289 433.18H170.281V432H180.289V433.18Z" fill="black"/>
<path d="M246.078 49.7778C244.88 49.7778 243.855 49.3517 243.003 48.4994C242.151 47.6472 241.724 46.6215 241.722 45.4222V36.7111H246.078V45.4222H254.789V49.7778H246.078ZM241.722 19.2889V10.5778C241.722 9.38001 242.149 8.355 243.003 7.50276C243.856 6.65053 244.881 6.22368 246.078 6.22223H254.789V10.5778H246.078V19.2889H241.722ZM261.322 43.0267C257.983 42.5185 255.134 41.0848 252.774 38.7256C250.415 36.3663 248.981 33.517 248.473 30.1778H252.829C253.264 32.3193 254.254 34.1609 255.797 35.7028C257.341 37.2447 259.182 38.2341 261.322 38.6711V43.0267ZM248.473 25.8222C248.981 22.483 250.415 19.625 252.774 17.2483C255.134 14.8716 257.983 13.4466 261.322 12.9733V17.3289C259.181 17.7645 257.339 18.7539 255.797 20.2972C254.255 21.8405 253.266 23.6822 252.829 25.8222H248.473ZM263.5 32.3556C262.302 32.3556 261.277 31.9294 260.425 31.0772C259.573 30.225 259.146 29.1992 259.144 28C259.144 26.7659 259.571 25.7315 260.425 24.8967C261.279 24.0619 262.304 23.6444 263.5 23.6444C264.734 23.6444 265.769 24.0619 266.603 24.8967C267.438 25.7315 267.856 26.7659 267.856 28C267.856 29.1978 267.438 30.2235 266.603 31.0772C265.769 31.9309 264.734 32.357 263.5 32.3556ZM265.678 43.0267V38.6711C267.819 38.2356 269.662 37.2468 271.205 35.705C272.748 34.1631 273.737 32.3207 274.171 30.1778H278.527C278.055 33.517 276.631 36.3663 274.254 38.7256C271.877 41.0848 269.018 42.5185 265.678 43.0267ZM274.171 25.8222C273.736 23.6807 272.747 21.8391 271.205 20.2972C269.663 18.7553 267.821 17.7659 265.678 17.3289V12.9733C269.017 13.4815 271.876 14.9152 274.254 17.2744C276.632 19.6337 278.056 22.483 278.527 25.8222H274.171ZM272.211 49.7778V45.4222H280.922V36.7111H285.278V45.4222C285.278 46.62 284.852 47.6457 283.999 48.4994C283.147 49.3531 282.121 49.7792 280.922 49.7778H272.211ZM280.922 19.2889V10.5778H272.211V6.22223H280.922C282.12 6.22223 283.146 6.64907 283.999 7.50276C284.853 8.35645 285.279 9.38146 285.278 10.5778V19.2889H280.922Z" fill="#888888"/>
<path d="M246.828 74.5781H234.016V73.3516H246.828V74.5781ZM241.117 73.6797H239.664V69.8594H241.117V73.6797ZM245.297 70.1172H235.477V63.4531H245.297V70.1172ZM236.938 68.9453H243.852V64.6406H236.938V68.9453ZM260.625 70.5391H247.844V69.3438H260.625V70.5391ZM259.18 67.9297H249.445V66.7266H259.18V67.9297ZM259.055 64.0938H250.914V67.1484H249.445V62.8984H259.055V64.0938ZM259.281 76.0234H249.461V74.8047H259.281V76.0234ZM250.93 75.1328H249.461V71.9062H250.93V75.1328ZM273.812 66.9844H271.273V65.7656H273.812V66.9844ZM277.516 72.8203H276.102V62.3203H277.516V72.8203ZM274.734 72.4219H273.312V62.5859H274.734V72.4219ZM277.914 76.0469H268.227V74.8203H277.914V76.0469ZM269.703 75.5156H268.227V71.5469H269.703V75.5156ZM269.555 65.3047C269.555 66.0703 269.43 66.8177 269.18 67.5469C268.935 68.276 268.573 68.9323 268.094 69.5156C267.615 70.099 267.042 70.5495 266.375 70.8672L265.555 69.7266C266.148 69.4453 266.656 69.0651 267.078 68.5859C267.5 68.1016 267.82 67.5755 268.039 67.0078C268.263 66.4349 268.375 65.8672 268.375 65.3047V63.2969H269.555V65.3047ZM269.812 65.3047C269.812 65.8568 269.917 66.3932 270.125 66.9141C270.333 67.4349 270.638 67.9115 271.039 68.3438C271.44 68.7708 271.93 69.112 272.508 69.3672L271.688 70.5234C271.031 70.2161 270.477 69.7969 270.023 69.2656C269.576 68.7292 269.237 68.1224 269.008 67.4453C268.779 66.7682 268.664 66.0547 268.664 65.3047V63.2969H269.812V65.3047ZM290.352 68.1797H286.484V66.9844H290.352V68.1797ZM284.172 65.8828C284.172 66.9557 284.01 67.9922 283.688 68.9922C283.365 69.987 282.909 70.8698 282.32 71.6406C281.732 72.4115 281.049 73.0026 280.273 73.4141L279.328 72.2109C280.042 71.8724 280.672 71.3724 281.219 70.7109C281.771 70.0443 282.198 69.2891 282.5 68.4453C282.802 67.6016 282.953 66.7474 282.953 65.8828V63.4844H284.172V65.8828ZM284.461 65.8828C284.461 66.7422 284.609 67.5781 284.906 68.3906C285.208 69.1979 285.628 69.9167 286.164 70.5469C286.706 71.1719 287.326 71.6432 288.023 71.9609L287.133 73.1641C286.352 72.763 285.669 72.1953 285.086 71.4609C284.508 70.7214 284.057 69.8724 283.734 68.9141C283.417 67.9505 283.258 66.9401 283.258 65.8828V63.4844H284.461V65.8828ZM291.086 76.3594H289.609V62.3203H291.086V76.3594Z" fill="black"/>
<path d="M251.833 168C250.596 168 249.409 167.508 248.533 166.633C247.658 165.758 247.167 164.571 247.167 163.333V126H268.167L279.833 137.667V163.333C279.833 164.571 279.342 165.758 278.466 166.633C277.591 167.508 276.404 168 275.167 168H251.833Z" stroke="#888888" stroke-width="4" stroke-linecap="round" stroke-linejoin="round"/>
<path d="M265.833 126V140H279.833" stroke="#888888" stroke-width="4" stroke-linejoin="round"/>
<path d="M256.5 149.333H270.5M256.5 158.667H270.5" stroke="#888888" stroke-width="4" stroke-linecap="round" stroke-linejoin="round"/>
<path d="M219.156 182.688H226.258V184.164H220.875V187.602H225.883V189.07H220.875V192.523H226.312V194H219.156V182.688ZM236.008 186.375C235.919 185.896 235.734 185.487 235.453 185.148C235.177 184.805 234.831 184.544 234.414 184.367C234.003 184.19 233.557 184.102 233.078 184.102C232.427 184.102 231.844 184.268 231.328 184.602C230.812 184.93 230.406 185.414 230.109 186.055C229.818 186.69 229.672 187.453 229.672 188.344C229.672 189.245 229.818 190.013 230.109 190.648C230.406 191.284 230.812 191.766 231.328 192.094C231.844 192.422 232.424 192.586 233.07 192.586C233.549 192.586 233.992 192.497 234.398 192.32C234.805 192.143 235.151 191.888 235.438 191.555C235.724 191.216 235.914 190.815 236.008 190.352L237.734 190.359C237.615 191.094 237.341 191.75 236.914 192.328C236.492 192.906 235.951 193.357 235.289 193.68C234.628 193.997 233.885 194.156 233.062 194.156C232.078 194.156 231.201 193.922 230.43 193.453C229.664 192.984 229.062 192.31 228.625 191.43C228.193 190.549 227.977 189.521 227.977 188.344C227.977 187.156 228.195 186.125 228.633 185.25C229.07 184.375 229.672 183.703 230.438 183.234C231.208 182.766 232.083 182.531 233.062 182.531C233.859 182.531 234.589 182.685 235.25 182.992C235.917 183.294 236.466 183.734 236.898 184.312C237.331 184.891 237.609 185.578 237.734 186.375H236.008ZM248.586 182.688V190.125C248.586 190.911 248.398 191.612 248.023 192.227C247.654 192.836 247.128 193.315 246.445 193.664C245.763 194.013 244.977 194.188 244.086 194.188C243.19 194.188 242.404 194.013 241.727 193.664C241.049 193.315 240.523 192.836 240.148 192.227C239.779 191.612 239.594 190.911 239.594 190.125V182.688H241.312V189.992C241.312 190.492 241.424 190.943 241.648 191.344C241.878 191.74 242.201 192.052 242.617 192.281C243.039 192.51 243.529 192.625 244.086 192.625C244.648 192.625 245.141 192.51 245.562 192.281C245.984 192.052 246.305 191.74 246.523 191.344C246.747 190.943 246.859 190.492 246.859 189.992V182.688H248.586ZM266.969 193.578H254.156V192.352H266.969V193.578ZM261.258 192.68H259.805V188.859H261.258V192.68ZM265.438 189.117H255.617V182.453H265.438V189.117ZM257.078 187.945H263.992V183.641H257.078V187.945ZM279.602 195.32H278.133V181.32H279.602V195.32ZM270.305 191.367H268.844V182.688H270.305V191.367ZM270.016 190.492C271.141 190.492 272.263 190.443 273.383 190.344C274.508 190.24 275.633 190.07 276.758 189.836L276.953 191.086C275.776 191.326 274.62 191.5 273.484 191.609C272.354 191.714 271.198 191.766 270.016 191.766H268.844V190.492H270.016ZM293.492 195.359H292.016V181.32H293.492V195.359ZM292.234 187.703H289.227V186.492H292.234V187.703ZM283.539 190.82C284.904 190.826 286.049 190.799 286.977 190.742C287.904 190.685 288.839 190.578 289.781 190.422L289.938 191.633C288.958 191.784 287.987 191.891 287.023 191.953C286.06 192.01 284.898 192.039 283.539 192.039H282.453V190.82H283.539ZM289 183.789H283.945V191.219H282.453V182.57H289V183.789ZM288.414 187.688H283.578V186.5H288.414V187.688ZM307.25 189.914H305.773V181.336H307.25V189.914ZM297.547 187.914C298.969 187.914 300.174 187.888 301.164 187.836C302.159 187.779 303.174 187.664 304.211 187.492L304.383 188.703C303.31 188.875 302.26 188.992 301.234 189.055C300.208 189.117 298.979 189.148 297.547 189.148H296.383V187.914H297.547ZM302.781 186.172H297.828V188.617H296.383V185.031H301.312V183.422H296.352V182.195H302.781V186.172ZM302.57 190.18C303.555 190.18 304.406 190.281 305.125 190.484C305.844 190.682 306.393 190.974 306.773 191.359C307.154 191.745 307.344 192.208 307.344 192.75C307.344 193.281 307.154 193.737 306.773 194.117C306.393 194.503 305.846 194.797 305.133 195C304.419 195.203 303.565 195.305 302.57 195.305C301.591 195.305 300.745 195.203 300.031 195C299.318 194.797 298.771 194.503 298.391 194.117C298.01 193.737 297.82 193.281 297.82 192.75C297.82 192.208 298.01 191.745 298.391 191.359C298.771 190.974 299.318 190.682 300.031 190.484C300.745 190.281 301.591 190.18 302.57 190.18ZM302.57 191.352C301.888 191.352 301.299 191.406 300.805 191.516C300.31 191.62 299.932 191.776 299.672 191.984C299.411 192.193 299.281 192.448 299.281 192.75C299.281 193.036 299.411 193.284 299.672 193.492C299.932 193.701 300.31 193.859 300.805 193.969C301.299 194.078 301.888 194.133 302.57 194.133C303.263 194.133 303.854 194.078 304.344 193.969C304.839 193.859 305.214 193.701 305.469 193.492C305.729 193.284 305.859 193.036 305.859 192.75C305.859 192.448 305.729 192.193 305.469 191.984C305.214 191.776 304.839 191.62 304.344 191.516C303.854 191.406 303.263 191.352 302.57 191.352Z" fill="black"/>
<path d="M275.167 260.167L276.702 259.399C281.243 257.129 283.515 255.992 285.172 257.019C286.833 258.046 286.833 260.584 286.833 265.659V266.341C286.833 271.418 286.833 273.954 285.174 274.981C283.513 276.008 281.243 274.871 276.704 272.601L275.167 271.833V260.167ZM267.14 255.36C267.48 255.682 267.752 256.068 267.94 256.496C268.127 256.925 268.228 257.387 268.234 257.854C268.24 258.322 268.153 258.786 267.977 259.22C267.801 259.653 267.539 260.047 267.209 260.378C266.878 260.708 266.484 260.969 266.05 261.145C265.617 261.321 265.153 261.408 264.685 261.402C264.217 261.395 263.755 261.295 263.327 261.107C262.899 260.919 262.512 260.647 262.191 260.307C261.554 259.646 261.201 258.762 261.21 257.844C261.218 256.927 261.587 256.049 262.236 255.4C262.885 254.752 263.763 254.384 264.681 254.376C265.599 254.369 266.48 254.722 267.14 255.36Z" stroke="#888888" stroke-width="4"/>
<path d="M240.167 264.833C240.167 257.164 240.167 253.328 242.285 250.745C242.673 250.273 243.106 249.84 243.578 249.452C246.163 247.333 249.995 247.333 257.667 247.333C265.336 247.333 269.172 247.333 271.755 249.452C272.227 249.84 272.66 250.273 273.048 250.745C275.167 253.33 275.167 257.161 275.167 264.833V267.167C275.167 274.836 275.167 278.672 273.048 281.255C272.66 281.727 272.227 282.16 271.755 282.548C269.17 284.667 265.339 284.667 257.667 284.667C249.997 284.667 246.161 284.667 243.578 282.548C243.106 282.16 242.673 281.727 242.285 281.255C240.167 278.67 240.167 274.839 240.167 267.167V264.833Z" stroke="#888888" stroke-width="4"/>
<path d="M239.047 314.32H237.625V300.32H239.047V314.32ZM235.383 306.828H231.883V305.594H235.383V306.828ZM236.148 313.633H234.75V300.633H236.148V313.633ZM228.438 309.805C229.573 309.805 230.508 309.776 231.242 309.719C231.977 309.661 232.721 309.552 233.477 309.391L233.617 310.633C232.857 310.789 232.099 310.893 231.344 310.945C230.589 310.997 229.62 311.029 228.438 311.039H227.523V309.805H228.438ZM232.828 303.211H228.969V310.297H227.523V302.008H232.828V303.211ZM252.445 314.359H250.953V300.32H252.445V314.359ZM244.945 301.375C245.643 301.375 246.266 301.578 246.812 301.984C247.359 302.391 247.786 302.964 248.094 303.703C248.401 304.443 248.555 305.305 248.555 306.289C248.555 307.279 248.401 308.143 248.094 308.883C247.786 309.622 247.359 310.195 246.812 310.602C246.266 311.003 245.643 311.203 244.945 311.203C244.247 311.203 243.622 311.003 243.07 310.602C242.523 310.195 242.096 309.622 241.789 308.883C241.482 308.143 241.328 307.279 241.328 306.289C241.328 305.305 241.482 304.443 241.789 303.703C242.096 302.964 242.523 302.391 243.07 301.984C243.622 301.578 244.247 301.375 244.945 301.375ZM244.945 302.703C244.518 302.703 244.138 302.849 243.805 303.141C243.471 303.432 243.214 303.849 243.031 304.391C242.854 304.927 242.766 305.56 242.766 306.289C242.766 307.013 242.854 307.646 243.031 308.188C243.214 308.729 243.471 309.146 243.805 309.438C244.138 309.724 244.518 309.867 244.945 309.867C245.372 309.867 245.75 309.724 246.078 309.438C246.411 309.146 246.669 308.729 246.852 308.188C247.034 307.646 247.125 307.013 247.125 306.289C247.125 305.56 247.034 304.927 246.852 304.391C246.669 303.849 246.414 303.432 246.086 303.141C245.758 302.849 245.378 302.703 244.945 302.703ZM266.352 314.359H264.875V300.32H266.352V314.359ZM265.094 306.703H262.086V305.492H265.094V306.703ZM256.398 309.82C257.763 309.826 258.909 309.799 259.836 309.742C260.763 309.685 261.698 309.578 262.641 309.422L262.797 310.633C261.818 310.784 260.846 310.891 259.883 310.953C258.919 311.01 257.758 311.039 256.398 311.039H255.312V309.82H256.398ZM261.859 302.789H256.805V310.219H255.312V301.57H261.859V302.789ZM261.273 306.688H256.438V305.5H261.273V306.688ZM284.047 314.32H282.547V300.32H284.047V314.32ZM279.891 301.828C279.891 303.255 279.669 304.576 279.227 305.789C278.789 306.997 278.086 308.112 277.117 309.133C276.148 310.148 274.888 311.029 273.336 311.773L272.539 310.57C273.888 309.935 274.995 309.195 275.859 308.352C276.729 307.508 277.372 306.565 277.789 305.523C278.206 304.482 278.414 303.331 278.414 302.07V301.828H279.891ZM279.055 303.016H273.219V301.828H279.055V303.016ZM299.031 309.18H286.219V307.969H299.031V309.18ZM297.414 304.18H289.336V305.953H287.867V303.086H295.93V301.836H287.828V300.648H297.414V304.18ZM297.703 306.648H287.867V305.484H297.703V306.648ZM293.352 308.594H291.891V306.055H293.352V308.594ZM297.492 314.219H296V311.344H287.648V310.156H297.492V314.219Z" fill="black"/>
<path d="M281.17 389.467L280.968 387.387L280.9 387.393L280.835 387.406L281.17 389.467ZM281.17 389.467L281.375 391.548L281.443 391.542L281.508 391.531L281.17 389.467ZM272.906 400.93L274.201 399.312L274.185 399.299L272.906 400.93ZM272.906 400.93L271.612 402.549L271.628 402.563L272.906 400.93ZM254.096 400.93L252.801 399.314L252.768 399.341L252.737 399.368L254.096 400.93ZM254.096 400.93L255.39 402.551L255.423 402.524L255.454 402.494L254.096 400.93ZM245.83 380.535V378.444H245.727L245.627 378.454L245.83 380.535ZM245.83 380.535V382.626H245.932L246.034 382.615L245.83 380.535ZM269.906 366.728C269.871 366.326 269.823 365.925 269.765 365.525C269.701 365.086 269.57 364.66 269.376 364.263L265.741 366.182C265.694 366.088 265.704 366.054 265.731 366.22C265.761 366.406 265.788 366.665 265.835 367.146L269.906 366.728ZM270.1 368.714C270.229 368.886 270.186 368.963 270.114 368.555C270.047 368.166 269.994 367.621 269.906 366.728L265.833 367.144C265.915 367.968 265.984 368.708 266.089 369.298C266.189 369.862 266.365 370.605 266.846 371.249L270.1 368.714ZM270.1 368.714L266.846 371.249C267.283 371.836 267.865 372.294 268.533 372.577C269.2 372.86 269.928 372.957 270.644 372.859L270.1 368.714ZM271.61 367.449C271.151 367.845 270.68 368.225 270.196 368.589C269.863 368.825 269.889 368.741 270.1 368.714L270.644 372.859C271.43 372.75 272.068 372.353 272.53 372.022C273.011 371.683 273.573 371.211 274.199 370.686L271.61 367.449ZM273.688 366.09C273.276 366.231 272.889 366.437 272.54 366.701C272.254 366.91 271.933 367.179 271.61 367.449L274.199 370.686C274.565 370.381 274.764 370.216 274.915 370.107C275.048 370.009 275.03 370.042 274.934 370.073L273.688 366.09ZM276.56 366.236C275.651 365.834 274.631 365.782 273.688 366.09L274.934 370.073L276.56 366.236ZM278.495 367.8C278.22 367.511 277.935 367.231 277.642 366.96C277.32 366.662 276.954 366.418 276.558 366.236L274.934 370.073C274.84 370.032 274.825 369.998 274.948 370.109C275.087 370.234 275.269 370.416 275.602 370.757L278.495 367.8ZM280.324 369.67L278.495 367.8L275.602 370.757L277.431 372.627L280.324 369.67ZM281.854 371.648C281.676 371.243 281.437 370.869 281.146 370.54C280.881 370.241 280.606 369.951 280.324 369.67L277.431 372.629C277.765 372.969 277.943 373.156 278.065 373.298C278.174 373.423 278.141 373.409 278.1 373.312L281.854 371.648ZM281.997 374.584C282.298 373.62 282.247 372.577 281.854 371.648L278.1 373.312L281.997 374.584ZM280.667 376.708C280.922 376.4 281.166 376.082 281.4 375.757C281.616 375.447 281.85 375.063 281.997 374.584L278.1 373.312C278.131 373.214 278.161 373.193 278.067 373.331C277.961 373.484 277.801 373.687 277.501 374.061L280.667 376.708ZM279.43 378.253C279.403 378.469 279.321 378.494 279.552 378.153C279.771 377.829 280.111 377.402 280.667 376.708L277.501 374.061C276.989 374.701 276.525 375.276 276.192 375.767C275.87 376.24 275.482 376.892 275.375 377.695L279.43 378.253ZM279.43 378.253L275.375 377.695C275.279 378.427 275.374 379.172 275.651 379.854C275.928 380.536 276.376 381.131 276.951 381.578L279.43 378.253ZM281.373 378.452C280.775 378.401 280.179 378.329 279.585 378.237C279.186 378.163 279.262 378.122 279.43 378.253L276.951 381.578C277.581 382.069 278.305 382.249 278.861 382.352C279.436 382.456 280.16 382.529 280.966 382.613L281.373 378.452ZM283.785 378.992C283.396 378.794 282.979 378.659 282.549 378.594C282.159 378.534 281.766 378.487 281.373 378.452L280.966 382.613C281.269 382.64 281.571 382.675 281.872 382.718C282.036 382.747 282.001 382.757 281.909 382.709L283.785 378.992ZM285.714 381.172C285.35 380.231 284.665 379.456 283.785 378.992L281.911 382.714L285.714 381.172ZM286 383.677C286 383.251 286 382.826 285.978 382.467C285.956 382.023 285.866 381.585 285.712 381.17L281.911 382.714C281.874 382.615 281.886 382.582 281.899 382.749C281.911 382.937 281.911 383.199 281.911 383.682L286 383.677ZM286 386.32V383.677H281.909V386.32H286ZM285.714 388.826C285.894 388.359 285.953 387.912 285.978 387.529C286 387.172 286 386.747 286 386.32H281.909C281.909 386.804 281.909 387.065 281.897 387.253C281.884 387.42 281.872 387.387 281.909 387.289L285.714 388.826ZM283.785 391.006C284.665 390.542 285.35 389.767 285.714 388.826L281.911 387.291L283.785 391.006ZM281.373 391.546C281.79 391.504 282.201 391.462 282.549 391.404C282.917 391.341 283.347 391.236 283.785 391.006L281.911 387.291C282.001 387.243 282.036 387.253 281.874 387.28C281.573 387.325 281.271 387.36 280.968 387.387L281.373 391.546ZM279.432 391.745C279.262 391.876 279.186 391.834 279.585 391.761C279.966 391.692 280.5 391.636 281.373 391.546L280.966 387.385C280.162 387.468 279.436 387.54 278.861 387.646C278.307 387.749 277.581 387.928 276.951 388.42L279.432 391.745ZM279.432 391.745L276.951 388.42C276.376 388.867 275.928 389.462 275.651 390.144C275.374 390.826 275.279 391.571 275.375 392.303L279.432 391.745ZM280.667 393.288C280.28 392.82 279.908 392.338 279.552 391.845C279.321 391.504 279.405 391.529 279.432 391.745L275.375 392.303C275.482 393.106 275.87 393.758 276.194 394.231C276.527 394.722 276.989 395.297 277.501 395.937L280.667 393.288ZM281.997 395.412C281.859 394.992 281.657 394.597 281.4 394.241C281.195 393.946 280.931 393.62 280.667 393.288L277.501 395.937C277.799 396.311 277.961 396.512 278.067 396.667C278.164 396.803 278.133 396.786 278.1 396.688L281.997 395.412ZM281.854 398.35C282.248 397.421 282.299 396.377 281.997 395.412L278.1 396.688L281.854 398.35ZM280.324 400.328C280.62 400.025 280.913 399.728 281.146 399.456C281.391 399.168 281.657 398.81 281.854 398.348L278.1 396.686C278.141 396.589 278.174 396.577 278.065 396.702C277.943 396.845 277.765 397.029 277.431 397.371L280.324 400.328ZM278.495 402.195L280.324 400.328L277.431 397.371L275.602 399.239L278.495 402.195ZM276.56 403.762C276.956 403.579 277.322 403.335 277.644 403.036C277.908 402.8 278.2 402.499 278.495 402.195L275.602 399.239C275.39 399.461 275.172 399.677 274.948 399.887C274.825 400 274.84 399.966 274.934 399.925L276.56 403.762ZM273.688 403.908C274.631 404.216 275.651 404.164 276.56 403.762L274.934 399.925L273.688 403.908ZM271.61 402.549C271.933 402.818 272.252 403.088 272.54 403.297C272.843 403.517 273.219 403.755 273.688 403.908L274.934 399.925C275.03 399.956 275.048 399.987 274.913 399.891C274.67 399.705 274.432 399.512 274.199 399.312L271.61 402.549ZM270.1 401.286C269.889 401.254 269.863 401.171 270.196 401.407C270.513 401.633 270.928 401.978 271.608 402.547L274.199 399.312C273.573 398.787 273.011 398.314 272.53 397.974C272.068 397.643 271.43 397.248 270.644 397.139L270.1 401.286ZM270.1 401.286L270.644 397.139C269.928 397.041 269.2 397.138 268.533 397.421C267.865 397.704 267.283 398.162 266.846 398.749L270.1 401.286ZM269.904 403.27C269.992 402.377 270.047 401.829 270.114 401.443C270.186 401.035 270.227 401.11 270.098 401.284L266.846 398.747C266.365 399.391 266.189 400.134 266.089 400.7C265.986 401.29 265.917 402.03 265.835 402.854L269.904 403.27ZM269.374 405.735C269.599 405.288 269.701 404.849 269.762 404.472C269.824 404.117 269.861 403.697 269.904 403.27L265.835 402.854C265.808 403.164 265.772 403.472 265.729 403.78C265.702 403.948 265.692 403.912 265.739 403.818L269.374 405.735ZM267.244 407.707C268.164 407.335 268.921 406.634 269.374 405.735L265.741 403.82L267.244 407.707ZM264.79 408C265.209 408 265.624 408 265.976 407.977C266.348 407.952 266.786 407.895 267.244 407.707L265.741 403.82C265.837 403.782 265.87 403.795 265.706 403.808C265.402 403.821 265.098 403.825 264.794 403.82L264.79 408ZM262.206 408H264.79L264.792 403.818H262.206V408ZM259.756 407.707C260.212 407.891 260.65 407.952 261.024 407.977C261.374 408 261.789 408 262.206 408V403.818C261.734 403.818 261.478 403.818 261.294 403.805C261.13 403.793 261.163 403.78 261.259 403.818L259.756 407.707ZM257.622 405.735C258.076 406.635 258.834 407.336 259.756 407.707L261.259 403.818L257.622 405.735ZM257.094 403.27C257.135 403.697 257.176 404.117 257.233 404.472C257.295 404.849 257.397 405.288 257.622 405.735L261.263 403.82C261.31 403.912 261.3 403.948 261.273 403.782C261.23 403.475 261.195 403.166 261.169 402.856L257.094 403.27ZM256.9 401.284C256.771 401.112 256.812 401.033 256.884 401.443C256.951 401.829 257.006 402.377 257.094 403.27L261.165 402.854C261.083 402.03 261.014 401.29 260.909 400.7C260.809 400.136 260.633 399.393 260.152 398.749L256.9 401.284ZM256.9 401.284L260.152 398.749C259.715 398.162 259.133 397.704 258.465 397.421C257.798 397.138 257.07 397.041 256.354 397.139L256.9 401.284ZM255.388 402.549C256.07 401.98 256.485 401.633 256.802 401.409C257.135 401.173 257.111 401.257 256.9 401.284L256.354 397.139C255.568 397.248 254.93 397.645 254.468 397.976C253.987 398.314 253.425 398.787 252.799 399.312L255.388 402.549ZM253.31 403.908C253.722 403.767 254.109 403.561 254.458 403.297C254.744 403.088 255.065 402.818 255.388 402.549L252.801 399.314C252.568 399.514 252.331 399.707 252.087 399.893C251.954 399.991 251.972 399.96 252.068 399.927L253.31 403.908ZM250.438 403.762C251.347 404.164 252.367 404.216 253.31 403.908L252.064 399.925L250.438 403.762ZM248.501 402.197C248.798 402.501 249.09 402.8 249.356 403.038C249.636 403.289 249.986 403.563 250.44 403.764L252.064 399.925C252.158 399.966 252.173 400 252.05 399.889C251.826 399.679 251.608 399.463 251.396 399.241L248.501 402.197ZM246.674 400.328L248.503 402.197L251.396 399.241L249.567 397.371L246.674 400.328ZM245.144 398.35C245.339 398.81 245.607 399.17 245.852 399.458C246.085 399.728 246.378 400.027 246.674 400.328L249.567 397.371C249.349 397.155 249.138 396.932 248.933 396.702C248.824 396.577 248.857 396.591 248.898 396.688L245.144 398.35ZM245.001 395.414C244.7 396.378 244.751 397.421 245.144 398.35L248.898 396.688L245.001 395.414ZM246.331 393.29C246.076 393.598 245.832 393.916 245.598 394.241C245.34 394.598 245.139 394.994 245.001 395.414L248.898 396.688C248.865 396.786 248.837 396.805 248.931 396.667C249.037 396.514 249.197 396.311 249.497 395.937L246.331 393.29ZM247.566 391.745C247.595 391.529 247.677 391.504 247.446 391.845C247.227 392.169 246.887 392.596 246.331 393.29L249.497 395.937C250.009 395.297 250.473 394.722 250.806 394.231C251.128 393.758 251.516 393.106 251.623 392.303L247.566 391.745ZM247.566 391.745L251.623 392.303C251.719 391.571 251.624 390.826 251.347 390.144C251.07 389.462 250.622 388.867 250.047 388.42L247.566 391.745ZM245.623 391.546C246.498 391.636 247.034 391.692 247.413 391.761C247.812 391.834 247.736 391.876 247.566 391.745L250.047 388.42C249.417 387.928 248.693 387.749 248.137 387.646C247.562 387.542 246.838 387.468 246.03 387.385L245.623 391.546ZM243.213 391.006C243.651 391.236 244.081 391.341 244.449 391.404C244.797 391.462 245.208 391.506 245.625 391.548L246.03 387.385C245.727 387.359 245.427 387.324 245.126 387.28C244.962 387.251 244.997 387.241 245.089 387.289L243.213 391.006ZM241.286 388.828C241.65 389.769 242.335 390.544 243.215 391.009L245.091 387.291L241.286 388.828ZM241 386.323C241 386.749 241 387.174 241.023 387.533C241.047 387.914 241.104 388.361 241.288 388.83L245.091 387.289C245.128 387.387 245.116 387.42 245.105 387.253C245.092 386.943 245.087 386.633 245.091 386.323H241ZM241 383.68V386.323H245.091V383.68H241ZM241.286 381.172C241.132 381.588 241.043 382.025 241.023 382.469C240.998 382.829 241 383.253 241 383.682H245.091C245.091 383.197 245.091 382.935 245.105 382.747C245.116 382.58 245.128 382.613 245.091 382.711L241.286 381.172ZM243.215 378.996C242.336 379.459 241.651 380.232 241.286 381.172L245.091 382.711L243.215 378.996ZM245.627 378.452C245.21 378.496 244.799 378.536 244.451 378.598C244.083 378.661 243.653 378.766 243.215 378.996L245.091 382.711C244.999 382.76 244.966 382.749 245.128 382.722C245.429 382.677 245.731 382.642 246.034 382.615L245.627 378.452ZM247.57 378.255C247.74 378.124 247.816 378.166 247.415 378.239C247.036 378.308 246.501 378.364 245.627 378.454L246.034 382.615C246.838 382.532 247.564 382.46 248.141 382.354C248.695 382.251 249.422 382.072 250.052 381.58L247.57 378.255ZM247.57 378.255L250.052 381.58C250.626 381.132 251.074 380.537 251.35 379.855C251.626 379.173 251.721 378.429 251.625 377.697L247.57 378.255ZM246.333 376.71C246.889 377.404 247.229 377.831 247.45 378.155C247.681 378.496 247.599 378.471 247.57 378.255L251.625 377.697C251.518 376.894 251.132 376.244 250.808 375.769C250.475 375.278 250.011 374.703 249.499 374.063L246.333 376.71ZM245.003 374.584C245.152 375.065 245.384 375.447 245.6 375.759C245.805 376.052 246.069 376.38 246.333 376.71L249.499 374.063C249.304 373.825 249.115 373.583 248.933 373.333C248.837 373.197 248.869 373.214 248.9 373.312L245.003 374.584ZM245.146 371.65C244.753 372.578 244.702 373.62 245.003 374.584L248.9 373.312L245.146 371.65ZM246.676 369.67C246.38 369.973 246.087 370.27 245.854 370.542C245.563 370.871 245.324 371.245 245.146 371.65L248.9 373.312C248.859 373.409 248.826 373.423 248.935 373.296C249.057 373.153 249.235 372.969 249.569 372.627L246.676 369.67ZM248.505 367.803L246.676 369.67L249.569 372.627L251.4 370.759L248.505 367.803ZM250.44 366.236C250.044 366.418 249.678 366.663 249.356 366.962C249.064 367.233 248.78 367.514 248.505 367.803L251.4 370.759C251.733 370.416 251.913 370.234 252.052 370.111C252.175 369.998 252.161 370.032 252.066 370.073L250.44 366.236ZM253.312 366.09C252.369 365.782 251.349 365.834 250.44 366.236L252.066 370.073L253.312 366.09ZM255.388 367.449C255.065 367.179 254.748 366.912 254.46 366.703C254.111 366.438 253.724 366.231 253.312 366.09L252.066 370.073C251.97 370.042 251.952 370.011 252.087 370.107C252.236 370.218 252.435 370.381 252.801 370.688L255.388 367.449ZM256.902 368.714C257.113 368.744 257.137 368.827 256.804 368.591C256.321 368.227 255.85 367.847 255.393 367.451L252.801 370.688C253.427 371.211 253.987 371.683 254.468 372.026C254.93 372.355 255.568 372.75 256.354 372.859L256.902 368.714ZM256.902 368.714L256.356 372.859C257.072 372.957 257.8 372.86 258.468 372.577C259.135 372.294 259.717 371.836 260.155 371.249L256.902 368.714ZM257.096 366.728C257.008 367.623 256.953 368.171 256.886 368.557C256.814 368.965 256.773 368.888 256.902 368.714L260.155 371.249C260.635 370.605 260.811 369.864 260.911 369.298C261.014 368.71 261.087 367.968 261.167 367.144L257.096 366.728ZM257.624 364.265C257.43 364.662 257.299 365.088 257.236 365.528C257.178 365.883 257.137 366.303 257.096 366.73L261.167 367.144C261.194 366.834 261.228 366.528 261.269 366.22C261.298 366.052 261.308 366.09 261.261 366.182L257.624 364.265ZM259.758 362.293C258.836 362.664 258.078 363.365 257.624 364.265L261.261 366.182L259.758 362.293ZM262.208 362C261.791 362 261.376 362 261.024 362.023C260.59 362.044 260.162 362.135 259.756 362.293L261.263 366.182C261.167 366.22 261.134 366.207 261.298 366.197C261.482 366.184 261.738 366.182 262.21 366.182L262.208 362ZM264.794 362H262.208V366.182H264.794V362ZM267.244 362.293C266.838 362.135 266.41 362.044 265.976 362.023C265.628 361.998 265.213 362 264.796 362V366.182C265.268 366.182 265.524 366.182 265.708 366.197C265.872 366.207 265.837 366.22 265.741 366.182L267.244 362.293ZM269.378 364.265C268.924 363.365 268.166 362.664 267.244 362.293L265.741 366.182L269.378 364.265ZM269.638 385.001C269.638 386.665 268.991 388.26 267.84 389.437C266.689 390.613 265.129 391.274 263.501 391.274V395.456C266.214 395.456 268.815 394.355 270.733 392.394C272.651 390.433 273.729 387.774 273.729 385.001H269.638ZM263.501 378.728C265.129 378.728 266.689 379.389 267.84 380.565C268.991 381.742 269.638 383.337 269.638 385.001H273.729C273.729 382.228 272.651 379.569 270.733 377.608C268.815 375.648 266.214 374.546 263.501 374.546V378.728ZM257.364 385.001C257.364 383.337 258.011 381.742 259.162 380.565C260.313 379.389 261.874 378.728 263.501 378.728V374.546C260.788 374.546 258.187 375.648 256.269 377.608C254.351 379.569 253.273 382.228 253.273 385.001H257.364ZM263.501 391.274C261.874 391.274 260.313 390.613 259.162 389.437C258.011 388.26 257.364 386.665 257.364 385.001H253.273C253.273 387.774 254.351 390.433 256.269 392.394C258.187 394.355 260.788 395.456 263.501 395.456V391.274Z" fill="#888888"/>
<path d="M260.836 422.938H257.25V421.742H260.836V422.938ZM261.688 426.523H260.203V419.32H261.688V426.523ZM261.688 430.672H254.023V432.688H252.562V429.555H260.219V428.359H252.539V427.188H261.688V430.672ZM262.164 433.148H252.562V431.969H262.164V433.148ZM254.664 421C254.664 421.865 254.508 422.669 254.195 423.414C253.888 424.154 253.44 424.797 252.852 425.344C252.268 425.885 251.573 426.299 250.766 426.586L249.969 425.398C250.688 425.174 251.307 424.841 251.828 424.398C252.354 423.951 252.76 423.438 253.047 422.859C253.333 422.276 253.477 421.656 253.477 421V419.781H254.664V421ZM254.945 421C254.945 421.594 255.081 422.161 255.352 422.703C255.628 423.245 256.021 423.724 256.531 424.141C257.047 424.557 257.648 424.88 258.336 425.109L257.547 426.258C256.776 425.982 256.102 425.586 255.523 425.07C254.945 424.549 254.5 423.943 254.188 423.25C253.88 422.552 253.727 421.802 253.727 421V419.781H254.945V421ZM274.453 424.109H271.43V422.891H274.453V424.109ZM275.516 427.656H274.031V419.32H275.516V427.656ZM270.82 428.055C271.805 428.055 272.651 428.159 273.359 428.367C274.073 428.576 274.617 428.878 274.992 429.273C275.372 429.664 275.562 430.135 275.562 430.688C275.562 431.24 275.372 431.711 274.992 432.102C274.617 432.497 274.073 432.799 273.359 433.008C272.651 433.216 271.805 433.323 270.82 433.328C269.846 433.323 269.005 433.216 268.297 433.008C267.589 432.799 267.044 432.497 266.664 432.102C266.284 431.711 266.094 431.24 266.094 430.688C266.094 430.135 266.284 429.664 266.664 429.273C267.044 428.878 267.589 428.576 268.297 428.367C269.005 428.159 269.846 428.055 270.82 428.055ZM270.82 429.195C270.148 429.195 269.565 429.255 269.07 429.375C268.581 429.49 268.206 429.659 267.945 429.883C267.69 430.107 267.562 430.375 267.562 430.688C267.562 430.99 267.69 431.253 267.945 431.477C268.206 431.701 268.581 431.872 269.07 431.992C269.565 432.107 270.148 432.164 270.82 432.164C271.508 432.164 272.094 432.107 272.578 431.992C273.068 431.872 273.44 431.701 273.695 431.477C273.956 431.253 274.086 430.99 274.086 430.688C274.086 430.375 273.956 430.107 273.695 429.883C273.44 429.659 273.068 429.49 272.578 429.375C272.094 429.255 271.508 429.195 270.82 429.195ZM268.57 421.82C268.57 422.68 268.409 423.492 268.086 424.258C267.768 425.023 267.312 425.695 266.719 426.273C266.125 426.846 265.43 427.281 264.633 427.578L263.859 426.391C264.568 426.141 265.185 425.779 265.711 425.305C266.242 424.831 266.648 424.292 266.93 423.688C267.211 423.078 267.352 422.456 267.352 421.82V420.734H268.57V421.82ZM268.852 421.805C268.852 422.393 268.987 422.966 269.258 423.523C269.529 424.076 269.919 424.57 270.43 425.008C270.94 425.44 271.539 425.776 272.227 426.016L271.469 427.195C270.682 426.919 270.003 426.51 269.43 425.969C268.857 425.427 268.417 424.797 268.109 424.078C267.802 423.354 267.648 422.596 267.648 421.805V420.734H268.852V421.805ZM271.867 421.508H264.305V420.281H271.867V421.508Z" fill="black"/>
</svg>
