<svg width="25" height="25" viewBox="0 0 25 25" fill="none" xmlns="http://www.w3.org/2000/svg">
<g id="mdi:place-outline">
<path id="Vector" d="M12.0353 6.52905C12.6983 6.52905 13.3342 6.79244 13.803 7.26129C14.2719 7.73013 14.5353 8.36601 14.5353 9.02905C14.5353 9.35736 14.4706 9.68245 14.345 9.98576C14.2193 10.2891 14.0352 10.5647 13.803 10.7968C13.5709 11.029 13.2953 11.2131 12.992 11.3388C12.6887 11.4644 12.3636 11.5291 12.0353 11.5291C11.3722 11.5291 10.7364 11.2657 10.2675 10.7968C9.79867 10.328 9.53528 9.69209 9.53528 9.02905C9.53528 8.36601 9.79867 7.73013 10.2675 7.26129C10.7364 6.79244 11.3722 6.52905 12.0353 6.52905ZM12.0353 2.02905C13.8918 2.02905 15.6723 2.76655 16.985 4.07931C18.2978 5.39206 19.0353 7.17254 19.0353 9.02905C19.0353 14.2791 12.0353 22.0291 12.0353 22.0291C12.0353 22.0291 5.03528 14.2791 5.03528 9.02905C5.03528 7.17254 5.77278 5.39206 7.08553 4.07931C8.39829 2.76655 10.1788 2.02905 12.0353 2.02905ZM12.0353 4.02905C10.7092 4.02905 9.43743 4.55584 8.49974 5.49352C7.56206 6.4312 7.03528 7.70297 7.03528 9.02905C7.03528 10.0291 7.03528 12.0291 12.0353 18.7391C17.0353 12.0291 17.0353 10.0291 17.0353 9.02905C17.0353 7.70297 16.5085 6.4312 15.5708 5.49352C14.6331 4.55584 13.3614 4.02905 12.0353 4.02905Z" fill="#0066FF"/>
</g>
</svg>
