<svg width="25" height="25" viewBox="0 0 25 25" fill="none" xmlns="http://www.w3.org/2000/svg">
<g id="f7:person-2" clip-path="url(#clip0_19_1723)">
<path id="Vector" d="M16.5826 12.5569C18.6337 12.5569 20.3051 10.7299 20.3051 8.50693C20.3051 6.30922 18.6423 4.56836 16.5826 4.56836C14.54 4.56836 12.8596 6.33493 12.8596 8.52407C12.8681 10.7385 14.54 12.5569 16.5826 12.5569ZM6.65514 12.7464C8.43028 12.7464 9.88657 11.1521 9.88657 9.19607C9.88657 7.28293 8.44743 5.7405 6.65514 5.7405C4.88 5.7405 3.41514 7.30907 3.42371 9.21322C3.43228 11.1611 4.88 12.7464 6.65514 12.7464ZM16.5826 11.2558C15.3243 11.2558 14.2469 10.0494 14.2469 8.52407C14.2469 7.02407 15.3071 5.86993 16.5826 5.86993C17.8666 5.86993 18.9179 7.00736 18.9179 8.5065C18.9179 10.0322 17.858 11.2558 16.5826 11.2558ZM6.65514 11.4624C5.60386 11.4624 4.70771 10.4544 4.70771 9.21322C4.70771 7.99822 5.59486 7.0245 6.65514 7.0245C7.74071 7.0245 8.61114 7.98107 8.61114 9.19607C8.61114 10.4544 7.715 11.4624 6.65514 11.4624ZM1.86371 20.6488H8.62871C8.21471 20.4161 7.89586 19.8988 7.95628 19.3734H1.64857C1.47628 19.3734 1.39014 19.3048 1.39014 19.1406C1.39014 17.0038 3.82871 15.0045 6.647 15.0045C7.73257 15.0045 8.70628 15.2629 9.54243 15.7541C9.81961 15.4028 10.1478 15.0949 10.5161 14.8408C9.40443 14.1079 8.069 13.7291 6.647 13.7291C3.03586 13.7291 0.105713 16.3485 0.105713 19.2182C0.105713 20.1748 0.69157 20.6488 1.86371 20.6488ZM11.1706 20.6488H21.9946C23.4247 20.6488 24.1057 20.2181 24.1057 19.2701C24.1057 17.0124 21.2531 13.7458 16.5826 13.7458C11.903 13.7458 9.05086 17.0124 9.05086 19.2701C9.05086 20.2181 9.73143 20.6488 11.1706 20.6488ZM10.757 19.3476C10.5329 19.3476 10.4381 19.2876 10.4381 19.1064C10.4381 17.6929 12.6269 15.0478 16.5826 15.0478C20.5297 15.0478 22.718 17.6929 22.718 19.1064C22.718 19.2872 22.6323 19.3476 22.4077 19.3476H10.757Z" fill="#0066FF"/>
</g>
<defs>
<clipPath id="clip0_19_1723">
<rect width="24" height="24" fill="white" transform="translate(0.105713 0.0289307)"/>
</clipPath>
</defs>
</svg>
