<svg width="35" height="32" viewBox="0 0 35 32" fill="none" xmlns="http://www.w3.org/2000/svg">
<path d="M1 11V31H26V16M1 11L10 11V1M1 11L10 1M10 1H26V10.5" stroke="white" stroke-width="2" stroke-linejoin="round"/>
<path d="M16 23.0001H17.414L26.728 13.6861L25.314 12.2721L16 21.5861V23.0001ZM18.5 25L14 25.0001V20.7571L27.435 7.32208C27.6225 7.13461 27.8768 7.0293 28.142 7.0293C28.4072 7.0293 28.6615 7.13461 28.849 7.32208L31.678 10.1511C31.8655 10.3386 31.9708 10.5929 31.9708 10.8581C31.9708 11.1232 31.8655 11.3776 31.678 11.5651L18.5 25ZM26.728 10.8581L28.142 12.2721L29.556 10.8581L28.142 9.44408L26.728 10.8581Z" fill="white"/>
</svg>
