<svg width="25" height="25" viewBox="0 0 25 25" fill="none" xmlns="http://www.w3.org/2000/svg">
<g id="f7:person-2" clip-path="url(#clip0_13_821)">
<path id="Vector" d="M16.5826 12.5569C18.6338 12.5569 20.3052 10.7299 20.3052 8.50693C20.3052 6.30922 18.6423 4.56836 16.5826 4.56836C14.5401 4.56836 12.8596 6.33493 12.8596 8.52407C12.8682 10.7385 14.5401 12.5569 16.5826 12.5569ZM6.6552 12.7464C8.43035 12.7464 9.88663 11.1521 9.88663 9.19607C9.88663 7.28293 8.44749 5.7405 6.6552 5.7405C4.88006 5.7405 3.4152 7.30907 3.42377 9.21322C3.43235 11.1611 4.88006 12.7464 6.6552 12.7464ZM16.5826 11.2558C15.3243 11.2558 14.2469 10.0494 14.2469 8.52407C14.2469 7.02407 15.3072 5.86993 16.5826 5.86993C17.8666 5.86993 18.9179 7.00736 18.9179 8.5065C18.9179 10.0322 17.8581 11.2558 16.5826 11.2558ZM6.6552 11.4624C5.60392 11.4624 4.70777 10.4544 4.70777 9.21322C4.70777 7.99822 5.59492 7.0245 6.6552 7.0245C7.74077 7.0245 8.6112 7.98107 8.6112 9.19607C8.6112 10.4544 7.71506 11.4624 6.6552 11.4624ZM1.86377 20.6488H8.62877C8.21477 20.4161 7.89592 19.8988 7.95635 19.3734H1.64863C1.47635 19.3734 1.3902 19.3048 1.3902 19.1406C1.3902 17.0038 3.82877 15.0045 6.64706 15.0045C7.73263 15.0045 8.70634 15.2629 9.54249 15.7541C9.81967 15.4028 10.1479 15.0949 10.5162 14.8408C9.40449 14.1079 8.06906 13.7291 6.64706 13.7291C3.03592 13.7291 0.105774 16.3485 0.105774 19.2182C0.105774 20.1748 0.691631 20.6488 1.86377 20.6488ZM11.1706 20.6488H21.9946C23.4248 20.6488 24.1058 20.2181 24.1058 19.2701C24.1058 17.0124 21.2532 13.7458 16.5826 13.7458C11.9031 13.7458 9.05092 17.0124 9.05092 19.2701C9.05092 20.2181 9.73149 20.6488 11.1706 20.6488ZM10.7571 19.3476C10.5329 19.3476 10.4382 19.2876 10.4382 19.1064C10.4382 17.6929 12.6269 15.0478 16.5826 15.0478C20.5298 15.0478 22.7181 17.6929 22.7181 19.1064C22.7181 19.2872 22.6323 19.3476 22.4078 19.3476H10.7571Z" fill="#CFD6E0"/>
</g>
<defs>
<clipPath id="clip0_13_821">
<rect width="24" height="24" fill="white" transform="translate(0.105774 0.0290527)"/>
</clipPath>
</defs>
</svg>
